<svg width="26" height="26" viewBox="0 0 26 26" fill="none" xmlns="http://www.w3.org/2000/svg">
<g clip-path="url(#clip0_348_49)">
<path d="M19.1814 25.4995H6.81858C5.228 25.4995 3.93396 24.2054 3.93396 22.6148V5.18516C3.93396 4.6541 4.36443 4.22363 4.89548 4.22363H21.1045C21.6355 4.22363 22.066 4.6541 22.066 5.18516V22.6148C22.066 24.2054 20.7719 25.4995 19.1814 25.4995ZM5.85706 6.14668V22.6148C5.85706 23.1451 6.2884 23.5764 6.81858 23.5764H19.1814C19.7116 23.5764 20.1429 23.145 20.1429 22.6148V6.14668H5.85706Z" fill="#FFC815"/>
<path d="M23.7467 6.14668H2.25327C1.72222 6.14668 1.29175 5.71621 1.29175 5.18516C1.29175 4.6541 1.72222 4.22363 2.25327 4.22363H23.7468C24.2778 4.22363 24.7083 4.6541 24.7083 5.18516C24.7083 5.71621 24.2778 6.14668 23.7467 6.14668Z" fill="#FFC815"/>
<path d="M16.8472 6.14722H9.15268C8.62163 6.14722 8.19116 5.71675 8.19116 5.18569V1.46152C8.19116 0.930469 8.62163 0.5 9.15268 0.5H16.8472C17.3783 0.5 17.8087 0.930469 17.8087 1.46152V5.18569C17.8088 5.71675 17.3783 6.14722 16.8472 6.14722ZM10.1142 4.22417H15.8857V2.4231H10.1142V4.22417Z" fill="#FFC815"/>
<path d="M10.1861 20.1032C9.65508 20.1032 9.22461 19.6728 9.22461 19.1417V10.5836C9.22461 10.0525 9.65508 9.62207 10.1861 9.62207C10.7172 9.62207 11.1477 10.0525 11.1477 10.5836V19.1417C11.1477 19.6728 10.7172 20.1032 10.1861 20.1032Z" fill="#FFC815"/>
<path d="M15.8139 20.1032C15.2829 20.1032 14.8524 19.6728 14.8524 19.1417V10.5836C14.8524 10.0525 15.2829 9.62207 15.8139 9.62207C16.345 9.62207 16.7755 10.0525 16.7755 10.5836V19.1417C16.7755 19.6728 16.345 20.1032 15.8139 20.1032Z" fill="#FFC815"/>
</g>
<defs>
<clipPath id="clip0_348_49">
<rect width="25" height="25" fill="white" transform="translate(0.5 0.5)"/>
</clipPath>
</defs>
</svg>
