<svg width="48" height="50" viewBox="0 0 48 50" fill="none" xmlns="http://www.w3.org/2000/svg">
<path fill-rule="evenodd" clip-rule="evenodd" d="M27.9453 32.7987C28.277 32.7989 28.6071 32.7529 28.9261 32.662C29.428 32.5176 29.8928 32.2666 30.2889 31.9262C30.6849 31.5858 31.0029 31.1639 31.221 30.6894C31.768 30.6524 32.2996 30.4919 32.7757 30.22C33.2517 29.948 33.6599 29.5716 33.9696 29.1191C34.2792 28.6666 34.4822 28.1498 34.5633 27.6075C34.6444 27.0652 34.6014 26.5117 34.4377 25.9884C34.8161 25.6756 35.1207 25.2831 35.3298 24.839C35.539 24.3948 35.6474 23.91 35.6474 23.419C35.6474 22.9281 35.539 22.4433 35.3298 21.9991C35.1207 21.555 34.8161 21.1625 34.4377 20.8497C34.6022 20.3263 34.6457 19.7725 34.565 19.2298C34.4842 18.6872 34.2814 18.17 33.9716 17.7172C33.6619 17.2644 33.2533 16.8878 32.7769 16.6159C32.3004 16.3439 31.7684 16.1837 31.221 16.1474C30.9399 15.5325 30.492 15.0089 29.9282 14.6358C29.3644 14.2628 28.7073 14.0555 28.0315 14.0373C27.3557 14.0191 26.6884 14.1908 26.1053 14.533C25.5222 14.8751 25.0468 15.3739 24.7331 15.9728C24.6448 16.1408 24.5986 16.3279 24.5986 16.5178V30.3204C24.5989 30.5103 24.645 30.6973 24.7331 30.8654C25.0426 31.4491 25.5052 31.9375 26.0712 32.2781C26.6372 32.6188 27.2847 32.7986 27.9453 32.7987ZM20.0547 32.7987C20.7153 32.7986 21.3635 32.6186 21.9295 32.2779C22.4956 31.9372 22.9581 31.4488 23.2676 30.8651C23.3556 30.6969 23.4016 30.5099 23.4017 30.3201V16.5179C23.4018 16.328 23.3558 16.141 23.2676 15.9729C22.9538 15.3741 22.4784 14.8753 21.8954 14.5331C21.3123 14.191 20.645 14.0193 19.9692 14.0375C19.2934 14.0557 18.6363 14.2631 18.0725 14.636C17.5087 15.009 17.0608 15.5327 16.7797 16.1475C16.2328 16.185 15.7015 16.346 15.2256 16.6182C14.7498 16.8904 14.3418 17.2669 14.0322 17.7193C13.7226 18.1718 13.5195 18.6884 13.4381 19.2306C13.3568 19.7727 13.3992 20.3262 13.5623 20.8496C13.1851 21.1631 12.8815 21.5559 12.6732 21.9999C12.4649 22.444 12.3569 22.9284 12.3569 23.4189C12.3569 23.9094 12.4649 24.3939 12.6732 24.838C12.8815 25.282 13.1851 25.6748 13.5623 25.9883C13.3838 26.5609 13.3496 27.1688 13.4629 27.7578C13.5761 28.3469 13.8332 28.8987 14.2113 29.3644C14.2113 29.3644 14.2123 29.3644 14.2127 29.3662C14.5276 29.7502 14.9178 30.0657 15.3592 30.2933C15.8007 30.5208 16.284 30.6556 16.7795 30.6893C16.9975 31.1639 17.3154 31.5858 17.7114 31.9263C18.1075 32.2668 18.5724 32.5177 19.0744 32.6619C19.3932 32.7528 19.7232 32.7989 20.0547 32.7987ZM7.44062 8.5167C7.33034 8.40822 7.24262 8.27898 7.18253 8.13643C7.12245 7.99388 7.09118 7.84085 7.09053 7.68615C7.08988 7.53146 7.11987 7.37816 7.17876 7.23512C7.23765 7.09207 7.32428 6.9621 7.43365 6.8527C7.54303 6.7433 7.67298 6.65664 7.81601 6.59771C7.95905 6.53879 8.11233 6.50876 8.26702 6.50938C8.42172 6.50999 8.57476 6.54122 8.71733 6.60128C8.85989 6.66133 8.98915 6.74902 9.09766 6.85928L11.5921 9.35371C11.8089 9.57411 11.9298 9.87124 11.9285 10.1804C11.9272 10.4895 11.8038 10.7856 11.5852 11.0042C11.3665 11.2228 11.0704 11.3461 10.7613 11.3473C10.4521 11.3486 10.155 11.2276 9.93467 11.0107L7.44062 8.5167ZM5.28066 22.2472C5.59146 22.2472 5.88954 22.3706 6.1093 22.5904C6.32907 22.8102 6.45254 23.1082 6.45254 23.419C6.45254 23.7298 6.32907 24.0279 6.1093 24.2477C5.88954 24.4675 5.59146 24.5909 5.28066 24.5909H1.75293C1.44213 24.5909 1.14406 24.4675 0.924289 24.2477C0.70452 24.0279 0.581055 23.7298 0.581055 23.419C0.581055 23.1082 0.70452 22.8102 0.924289 22.5904C1.14406 22.3706 1.44213 22.2472 1.75293 22.2472H5.28066ZM7.44062 38.3214L9.93467 35.827C10.0435 35.7181 10.1727 35.6318 10.3149 35.5729C10.4571 35.514 10.6095 35.4837 10.7634 35.4837C10.9173 35.4837 11.0697 35.514 11.2119 35.5729C11.3541 35.6318 11.4833 35.7181 11.5921 35.827C11.7009 35.9358 11.7872 36.065 11.8461 36.2072C11.905 36.3494 11.9354 36.5018 11.9354 36.6557C11.9354 36.8096 11.905 36.962 11.8461 37.1042C11.7872 37.2464 11.7009 37.3755 11.5921 37.4844L9.09766 39.9785C8.98963 40.0907 8.86031 40.1803 8.71727 40.242C8.57422 40.3036 8.42032 40.3361 8.26456 40.3376C8.10881 40.3391 7.95431 40.3095 7.81012 40.2506C7.66593 40.1917 7.53493 40.1046 7.42478 39.9945C7.31464 39.8843 7.22755 39.7533 7.16862 39.6091C7.10969 39.4649 7.0801 39.3105 7.08158 39.1547C7.08305 38.9989 7.11556 38.845 7.17721 38.702C7.23886 38.5589 7.32841 38.4294 7.44062 38.3214ZM36.408 37.4844C36.2992 37.3755 36.2129 37.2463 36.154 37.1042C36.0951 36.962 36.0648 36.8096 36.0648 36.6557C36.0648 36.5018 36.0951 36.3494 36.154 36.2072C36.2129 36.0651 36.2993 35.9359 36.4081 35.827C36.5169 35.7182 36.6461 35.6319 36.7883 35.573C36.9305 35.5142 37.0829 35.4838 37.2368 35.4839C37.3907 35.4839 37.5431 35.5142 37.6852 35.5731C37.8274 35.632 37.9566 35.7183 38.0654 35.8271L40.5595 38.3216C40.7729 38.5426 40.891 38.8386 40.8883 39.1459C40.8856 39.4532 40.7624 39.7471 40.5451 39.9643C40.3278 40.1816 40.0339 40.3048 39.7266 40.3075C39.4194 40.3101 39.1233 40.192 38.9023 39.9785L36.408 37.4844ZM46.2472 22.2475C46.558 22.2475 46.856 22.3709 47.0758 22.5907C47.2956 22.8105 47.419 23.1085 47.419 23.4193C47.419 23.7301 47.2956 24.0282 47.0758 24.248C46.856 24.4677 46.558 24.5912 46.2472 24.5912H42.7199C42.4091 24.5912 42.1111 24.4677 41.8913 24.248C41.6715 24.0282 41.548 23.7301 41.548 23.4193C41.548 23.1085 41.6715 22.8105 41.8913 22.5907C42.1111 22.3709 42.4091 22.2475 42.7199 22.2475H46.2472ZM40.5595 8.51699L38.0654 11.0107C37.8451 11.2276 37.548 11.3486 37.2388 11.3473C36.9297 11.3461 36.6336 11.2228 36.4149 11.0042C36.1963 10.7856 36.0729 10.4895 36.0716 10.1804C36.0703 9.87124 36.1912 9.57411 36.408 9.35371L38.9023 6.85928C39.0107 6.74847 39.14 6.66027 39.2827 6.59978C39.4254 6.53929 39.5787 6.5077 39.7337 6.50686C39.8887 6.50601 40.0423 6.53593 40.1857 6.59486C40.329 6.6538 40.4593 6.74058 40.5688 6.8502C40.6784 6.95981 40.7652 7.09008 40.8241 7.23345C40.883 7.37682 40.9128 7.53045 40.9119 7.68545C40.911 7.84044 40.8794 7.99372 40.8189 8.1364C40.7584 8.27909 40.6703 8.40864 40.5595 8.51699ZM24 5.87119C23.6892 5.87119 23.3911 5.74773 23.1714 5.52796C22.9516 5.30819 22.8281 5.01012 22.8281 4.69932V1.17187C22.8281 0.861074 22.9516 0.563003 23.1714 0.343234C23.3911 0.123465 23.6892 0 24 0C24.3108 0 24.6089 0.123465 24.8286 0.343234C25.0484 0.563003 25.1719 0.861074 25.1719 1.17187V4.69922C25.1719 5.01002 25.0484 5.30809 24.8286 5.52786C24.6089 5.74763 24.3108 5.87119 24 5.87119ZM16.7685 34.2157C14.9943 33.0285 13.5403 31.4221 12.5352 29.5389C11.53 27.6556 11.0046 25.5536 11.0057 23.4188C11.0057 16.2539 16.8348 10.4238 24.0003 10.4238C31.1658 10.4238 36.9949 16.2539 36.9949 23.4188C36.9957 25.5536 36.4703 27.6556 35.465 29.5388C34.4598 31.4221 33.0057 33.0284 31.2316 34.2157C30.2879 34.8407 29.5612 35.7429 29.1516 36.7981H18.8488C18.4393 35.7429 17.7122 34.8406 16.7685 34.2157ZM26.4035 47.6562H21.5966C21.3211 47.6559 21.0571 47.5463 20.8623 47.3516C20.6675 47.1569 20.5578 46.8929 20.5573 46.6175V45.2853H27.4433V46.6175C27.4427 46.893 27.3329 47.157 27.138 47.3517C26.9431 47.5464 26.679 47.6559 26.4035 47.6562ZM19.2148 39.142H28.7852V42.3983C28.7831 42.5417 28.7253 42.6786 28.624 42.78C28.5227 42.8814 28.3859 42.9393 28.2426 42.9415H19.7582C19.6147 42.9396 19.4777 42.8817 19.3762 42.7803C19.2747 42.6789 19.2168 42.5418 19.2148 42.3983V39.142ZM21.5966 50C20.6997 49.999 19.8399 49.6423 19.2057 49.0082C18.5715 48.374 18.2147 47.5142 18.2136 46.6174V44.8352C17.8027 44.5749 17.4643 44.215 17.2297 43.789C16.9952 43.363 16.872 42.8846 16.8717 42.3982V38.8045C16.8832 38.2802 16.7596 37.7617 16.5128 37.299C16.266 36.8362 15.9043 36.4447 15.4625 36.1622C13.3688 34.7608 11.6529 32.8647 10.4667 30.642C9.28045 28.4192 8.66054 25.9383 8.66182 23.4188C8.66182 14.9608 15.5422 8.07998 24.0003 8.07998C32.4584 8.07998 39.3388 14.9608 39.3388 23.4188C39.3398 25.9383 38.7198 28.4191 37.5336 30.6418C36.3474 32.8645 34.6316 34.7605 32.5381 36.1621C32.0962 36.4447 31.7345 36.8362 31.4877 37.299C31.2409 37.7619 31.1173 38.2804 31.1289 38.8048V42.3985C31.1286 42.8849 31.0054 43.3633 30.7708 43.7893C30.5362 44.2153 30.1978 44.5751 29.787 44.8354V46.6177C29.7857 47.5145 29.4287 48.3742 28.7945 49.0083C28.1602 49.6423 27.3004 49.999 26.4035 50H21.5966Z" fill="#FFC815"/>
</svg>
