<svg width="171" height="48" viewBox="0 0 171 48" fill="none" xmlns="http://www.w3.org/2000/svg">
<g clip-path="url(#clip0_169_13091)">
<path d="M69.0735 6.85314H63.4929V2.79102H69.0735V6.85314ZM68.9227 25.9435H63.6438V9.23385H68.9227V25.9435Z" fill="#0D51D9"/>
<path d="M87.9054 25.9453H82.5963V17.6575C82.5963 16.983 82.5685 16.3109 82.5133 15.6413C82.458 14.9718 82.3549 14.4784 82.2041 14.1608C82.0231 13.784 81.7615 13.5136 81.4198 13.3499C81.0779 13.1863 80.6204 13.1044 80.0473 13.1044C79.6148 13.1044 79.1774 13.1839 78.7351 13.3424C78.2925 13.5012 77.82 13.7542 77.3173 14.1013V25.9453H72.0383V9.23572H77.3173V11.0808C78.182 10.3568 79.024 9.79137 79.8437 9.38447C80.6631 8.97784 81.5706 8.77441 82.5661 8.77441C84.2954 8.77441 85.6178 9.31264 86.5329 10.3888C87.4478 11.4653 87.9054 13.025 87.9054 15.0684V25.9453Z" fill="#0D51D9"/>
<path d="M101.714 6.72055H101.307C101.106 6.66104 100.792 6.58433 100.364 6.48989C99.9369 6.39577 99.5323 6.34852 99.1502 6.34852C98.0843 6.34852 97.3577 6.54197 96.9708 6.92885C96.5836 7.31574 96.3901 8.03992 96.3901 9.10125V9.23519H100.583V12.8658H96.571V25.9448H91.292V12.8657H89.1804V9.23514H91.292V8.77388C91.292 6.73053 91.835 5.1979 92.921 4.17612C94.0069 3.15455 95.651 2.64355 97.8531 2.64355C98.6171 2.64355 99.3312 2.671 99.9948 2.72541C100.658 2.78004 101.232 2.85186 101.714 2.94115V6.72055H101.714Z" fill="#0D51D9"/>
<path d="M113.14 14.1605H112.703C112.502 14.0912 112.21 14.0391 111.828 14.0042C111.446 13.9696 111.024 13.9522 110.561 13.9522C110.008 13.9522 109.427 14.0317 108.819 14.1903C108.211 14.349 107.62 14.5376 107.047 14.7557V25.945H101.768V9.2354H107.047V11.631C107.288 11.4129 107.622 11.1376 108.05 10.8051C108.477 10.4729 108.867 10.2077 109.219 10.0091C109.601 9.78101 110.046 9.58501 110.554 9.4213C111.061 9.25764 111.542 9.17578 111.994 9.17578C112.165 9.17578 112.356 9.18093 112.567 9.19065C112.779 9.20063 112.969 9.21554 113.14 9.23529V14.1605H113.14Z" fill="#0D51D9"/>
<path d="M123.572 24.1738C123.21 24.4714 122.885 24.7392 122.599 24.9773C122.312 25.2153 121.927 25.4534 121.445 25.6915C120.972 25.9198 120.512 26.0932 120.065 26.2123C119.617 26.3313 118.991 26.3909 118.187 26.3909C116.689 26.3909 115.444 25.8949 114.454 24.9029C113.463 23.9111 112.968 22.6612 112.968 21.1533C112.968 19.9134 113.219 18.9116 113.722 18.1476C114.225 17.3839 114.949 16.7787 115.894 16.3323C116.849 15.8762 117.991 15.5586 119.318 15.38C120.645 15.2015 122.073 15.0627 123.602 14.9634V14.8741C123.602 13.9516 123.257 13.3144 122.568 12.9621C121.88 12.6101 120.846 12.4339 119.469 12.4339C118.845 12.4339 118.116 12.5455 117.282 12.7687C116.447 12.9919 115.633 13.2772 114.839 13.6243H114.386V9.59201C114.909 9.44322 115.753 9.26724 116.92 9.06382C118.086 8.86061 119.263 8.75879 120.449 8.75879C123.365 8.75879 125.489 9.23751 126.822 10.1946C128.154 11.152 128.82 12.6126 128.82 14.5767V25.9446H123.571V24.1738H123.572ZM123.572 21.5848V18.103C122.676 18.1923 121.952 18.2692 121.4 18.3336C120.846 18.3983 120.303 18.5248 119.771 18.713C119.308 18.8718 118.949 19.1125 118.692 19.4347C118.436 19.7572 118.308 20.1861 118.308 20.7218C118.308 21.5055 118.521 22.0438 118.949 22.3362C119.376 22.6289 120.007 22.7752 120.841 22.7752C121.304 22.7752 121.777 22.671 122.259 22.4627C122.742 22.2544 123.179 21.9619 123.572 21.5848Z" fill="#0D51D9"/>
<path d="M148.059 17.5978C148.059 20.3457 147.297 22.5106 145.774 24.0928C144.251 25.6751 142.096 26.466 139.311 26.466C136.546 26.466 134.396 25.6751 132.863 24.0928C131.33 22.5107 130.563 20.3457 130.563 17.5978C130.563 14.8205 131.33 12.6455 132.863 11.0732C134.396 9.50109 136.546 8.71484 139.311 8.71484C142.086 8.71484 144.238 9.50597 145.766 11.0881C147.295 12.6704 148.059 14.8402 148.059 17.5978ZM142.644 17.6276C142.644 16.6358 142.561 15.81 142.395 15.1501C142.229 14.4906 142.001 13.9624 141.709 13.5655C141.397 13.1489 141.046 12.8587 140.653 12.6951C140.261 12.5314 139.814 12.4495 139.311 12.4495C138.838 12.4495 138.411 12.5216 138.029 12.6653C137.647 12.8092 137.295 13.0844 136.973 13.4911C136.671 13.878 136.43 14.4087 136.249 15.0832C136.068 15.7579 135.978 16.606 135.978 17.6276C135.978 18.6494 136.063 19.4752 136.234 20.105C136.405 20.7351 136.626 21.2384 136.898 21.6153C137.179 22.0022 137.531 22.2848 137.953 22.4634C138.376 22.6419 138.843 22.7312 139.356 22.7312C139.779 22.7312 140.208 22.6419 140.646 22.4634C141.083 22.2849 141.432 22.017 141.694 21.6599C142.006 21.2335 142.242 20.7202 142.403 20.1199C142.564 19.5198 142.644 18.6892 142.644 17.6276Z" fill="#0D51D9"/>
<path d="M165.804 25.9453H160.495V17.6575C160.495 16.983 160.467 16.3109 160.412 15.6413C160.357 14.9718 160.254 14.4784 160.103 14.1608C159.922 13.784 159.66 13.5136 159.319 13.3499C158.977 13.1863 158.519 13.1044 157.946 13.1044C157.514 13.1044 157.076 13.1839 156.634 13.3424C156.191 13.5012 155.719 13.7542 155.216 14.1013V25.9453H149.937V9.23572H155.216V11.0808C156.081 10.3568 156.923 9.79137 157.743 9.38447C158.562 8.97784 159.47 8.77441 160.465 8.77441C162.194 8.77441 163.517 9.31264 164.432 10.3888C165.347 11.4653 165.804 13.025 165.804 15.0684V25.9453H165.804Z" fill="#0D51D9"/>
<path d="M51.1049 23.8277C51.1049 24.9255 50.767 26.0336 50.0646 26.9909L39.5611 19.4913L34.8905 16.1565L32.6972 14.5905L32.582 14.5083L23.6185 8.10821L21.8734 6.86209L21.8064 6.81432L25.0021 2.45857L25.0176 2.4375L25.4748 2.76381L26.2717 3.33273L27.0291 3.87345L39.5609 12.8217L44.2317 16.1565L48.8389 19.4462C50.3187 20.503 51.1049 22.1536 51.1049 23.8277Z" fill="#80C6FF"/>
<path d="M23.6399 16.0091C23.6399 19.9383 20.412 23.1227 16.4291 23.1227C12.4462 23.1227 9.21826 19.9383 9.21826 16.0091C9.21826 15.7646 9.23086 15.523 9.25502 15.2853C9.25601 15.2776 9.25694 15.271 9.25793 15.2633C9.50957 12.8771 10.9575 10.8424 12.9989 9.75C12.995 9.81492 12.9931 9.87985 12.9931 9.94572V12.7148C12.9931 13.6639 13.3831 14.5233 14.0132 15.1458C14.6443 15.7675 15.5154 16.1522 16.4775 16.1522C18.4017 16.1522 19.9619 14.613 19.9619 12.7148V9.94567C19.9619 9.8989 19.96 9.85208 19.958 9.80627C22.1116 11.0008 23.5799 13.2523 23.638 15.8495C23.639 15.903 23.6399 15.9556 23.6399 16.0091Z" fill="#0D51D9"/>
<path d="M18.4129 9.28503V12.3281C18.4129 13.4921 17.5456 14.4365 16.4771 14.4365C15.4085 14.4365 14.5413 13.4921 14.5413 12.3281V9.28503C14.5413 9.24495 14.5422 9.20481 14.5442 9.16569C14.5713 9.14945 14.5983 9.13416 14.6265 9.11892C15.2024 8.97188 15.8063 8.89453 16.4287 8.89453C17.0801 8.89453 17.7111 8.97952 18.3103 9.13994C18.3442 9.15905 18.3781 9.17907 18.4109 9.19913C18.4119 9.22775 18.4129 9.25641 18.4129 9.28503Z" fill="#80C6FF"/>
<path d="M56.6681 0.376395L39.5608 12.8429L34.8904 16.1776L32.6993 17.7421L32.6968 17.7438C32.6976 17.736 32.6985 17.7283 32.6993 17.7205L32.5795 17.806L23.7434 24.1153C23.7021 24.1525 23.6603 24.1894 23.6183 24.2261L21.8734 25.4719C21.8531 25.4835 21.8329 25.4953 21.8126 25.5069C20.2145 26.4121 18.3622 26.9297 16.3873 26.9297C10.3619 26.9297 5.4773 22.111 5.4773 16.1668C5.4773 10.2227 10.3619 5.40398 16.3873 5.40398C18.3873 5.40398 20.2616 5.93483 21.8732 6.8617C22.4971 7.22034 23.0814 7.63833 23.6184 8.10782L32.5818 14.5079L32.697 14.5901C32.2772 10.3097 30.165 6.51771 27.0288 3.87306C24.1657 1.45891 20.4491 0.000976562 16.3873 0.000976562C7.337 0.000976562 0.000488281 7.2386 0.000488281 16.1669C0.000488281 23.1368 4.47141 29.0761 10.7383 31.3465C12.4992 31.9845 14.4021 32.3328 16.3873 32.3328C16.636 32.3328 16.8835 32.3274 17.1296 32.3164C20.9006 32.1504 24.3401 30.7273 27.0278 28.4615L27.1831 28.3506L39.561 19.5124L44.2315 16.1777L55.4427 7.92123C56.9225 6.86451 57.7087 5.21415 57.7087 3.53984C57.7087 2.44204 57.3705 1.33389 56.6681 0.376395Z" fill="#0D51D9"/>
<path d="M39.5825 19.509L44.2256 16.1777L45.2804 16.9079L39.7469 19.6152L39.5825 19.509Z" fill="#4D9EFF"/>
</g>
<path d="M0.711881 47.2294V40.2688H1.46331V41.0729H1.55559C1.61272 40.9851 1.69182 40.873 1.79289 40.7368C1.89615 40.5984 2.04336 40.4753 2.23452 40.3677C2.42787 40.2578 2.68933 40.2029 3.0189 40.2029C3.44515 40.2029 3.82087 40.3094 4.14605 40.5226C4.47123 40.7357 4.725 41.0378 4.90737 41.4289C5.08973 41.82 5.18091 42.2814 5.18091 42.8131C5.18091 43.3492 5.08973 43.8139 4.90737 44.2072C4.725 44.5983 4.47233 44.9015 4.14935 45.1168C3.82636 45.33 3.45394 45.4365 3.03209 45.4365C2.70691 45.4365 2.44654 45.3827 2.251 45.275C2.05545 45.1652 1.90494 45.041 1.79948 44.9026C1.69401 44.762 1.61272 44.6455 1.55559 44.5533H1.48968V47.2294H0.711881ZM1.47649 42.7999C1.47649 43.1822 1.53252 43.5195 1.64458 43.8117C1.75663 44.1017 1.92032 44.3291 2.13564 44.4939C2.35097 44.6565 2.61463 44.7378 2.92662 44.7378C3.2518 44.7378 3.52315 44.6521 3.74067 44.4808C3.96039 44.3072 4.12518 44.0743 4.23503 43.7821C4.34709 43.4876 4.40312 43.1603 4.40312 42.7999C4.40312 42.444 4.34819 42.1232 4.23833 41.8376C4.13067 41.5497 3.96698 41.3223 3.74726 41.1553C3.52974 40.9862 3.2562 40.9016 2.92662 40.9016C2.61023 40.9016 2.34437 40.9818 2.12905 41.1422C1.91373 41.3004 1.75114 41.5223 1.64128 41.8079C1.53142 42.0913 1.47649 42.422 1.47649 42.7999ZM8.42393 45.4365C7.96692 45.4365 7.56594 45.3278 7.22098 45.1102C6.87822 44.8927 6.61017 44.5884 6.41682 44.1973C6.22567 43.8062 6.13009 43.3492 6.13009 42.8263C6.13009 42.299 6.22567 41.8387 6.41682 41.4454C6.61017 41.0521 6.87822 40.7467 7.22098 40.5292C7.56594 40.3116 7.96692 40.2029 8.42393 40.2029C8.88094 40.2029 9.28082 40.3116 9.62358 40.5292C9.96854 40.7467 10.2366 41.0521 10.4277 41.4454C10.6211 41.8387 10.7178 42.299 10.7178 42.8263C10.7178 43.3492 10.6211 43.8062 10.4277 44.1973C10.2366 44.5884 9.96854 44.8927 9.62358 45.1102C9.28082 45.3278 8.88094 45.4365 8.42393 45.4365ZM8.42393 44.7378C8.77108 44.7378 9.05671 44.6488 9.28082 44.4709C9.50493 44.2929 9.67082 44.0589 9.77848 43.7689C9.88614 43.4788 9.93997 43.1647 9.93997 42.8263C9.93997 42.4879 9.88614 42.1726 9.77848 41.8804C9.67082 41.5882 9.50493 41.352 9.28082 41.1718C9.05671 40.9917 8.77108 40.9016 8.42393 40.9016C8.07678 40.9016 7.79115 40.9917 7.56703 41.1718C7.34292 41.352 7.17704 41.5882 7.06938 41.8804C6.96172 42.1726 6.90789 42.4879 6.90789 42.8263C6.90789 43.1647 6.96172 43.4788 7.06938 43.7689C7.17704 44.0589 7.34292 44.2929 7.56703 44.4709C7.79115 44.6488 8.07678 44.7378 8.42393 44.7378ZM12.8798 45.3311L11.3374 40.2688H12.1547L13.2489 44.1446H13.3016L14.3826 40.2688H15.2132L16.281 44.1314H16.3337L17.4279 40.2688H18.2453L16.7028 45.3311H15.9382L14.8309 41.4421H14.7518L13.6444 45.3311H12.8798ZM21.2238 45.4365C20.736 45.4365 20.3153 45.3289 19.9615 45.1135C19.61 44.896 19.3386 44.5928 19.1475 44.2039C18.9585 43.8128 18.864 43.358 18.864 42.8395C18.864 42.3209 18.9585 41.8639 19.1475 41.4684C19.3386 41.0708 19.6045 40.761 19.945 40.539C20.2878 40.3149 20.6877 40.2029 21.1447 40.2029C21.4083 40.2029 21.6687 40.2468 21.9258 40.3347C22.1828 40.4226 22.4168 40.5654 22.6278 40.7631C22.8387 40.9587 23.0068 41.218 23.132 41.5409C23.2573 41.8639 23.3199 42.2616 23.3199 42.734V43.0636H19.4177V42.3912H22.5289C22.5289 42.1056 22.4718 41.8507 22.3575 41.6266C22.2455 41.4025 22.0851 41.2257 21.8763 41.096C21.6698 40.9664 21.4259 40.9016 21.1447 40.9016C20.8349 40.9016 20.5668 40.9785 20.3405 41.1323C20.1164 41.2839 19.9439 41.4816 19.8231 41.7255C19.7022 41.9694 19.6418 42.2309 19.6418 42.5099V42.9581C19.6418 43.3404 19.7077 43.6645 19.8396 43.9304C19.9736 44.194 20.1593 44.3951 20.3966 44.5335C20.6338 44.6697 20.9096 44.7378 21.2238 44.7378C21.4281 44.7378 21.6127 44.7093 21.7775 44.6521C21.9445 44.5928 22.0884 44.5049 22.2092 44.3885C22.3301 44.2698 22.4234 44.1226 22.4894 43.9468L23.2408 44.1578C23.1617 44.4126 23.0288 44.6368 22.842 44.8301C22.6552 45.0213 22.4245 45.1707 22.1499 45.2783C21.8752 45.3838 21.5665 45.4365 21.2238 45.4365ZM24.5031 45.3311V40.2688H25.2545V41.0334H25.3072C25.3995 40.7829 25.5665 40.5797 25.8082 40.4237C26.0499 40.2677 26.3223 40.1897 26.6255 40.1897C26.6826 40.1897 26.754 40.1908 26.8397 40.193C26.9254 40.1952 26.9902 40.1985 27.0342 40.2029V40.9939C27.0078 40.9873 26.9474 40.9774 26.8529 40.9642C26.7606 40.9488 26.6629 40.9411 26.5596 40.9411C26.3135 40.9411 26.0938 40.9928 25.9004 41.096C25.7093 41.1971 25.5577 41.3377 25.4456 41.5179C25.3358 41.6958 25.2808 41.8991 25.2808 42.1276V45.3311H24.5031ZM29.9246 45.4365C29.4368 45.4365 29.016 45.3289 28.6623 45.1135C28.3107 44.896 28.0394 44.5928 27.8482 44.2039C27.6593 43.8128 27.5648 43.358 27.5648 42.8395C27.5648 42.3209 27.6593 41.8639 27.8482 41.4684C28.0394 41.0708 28.3052 40.761 28.6458 40.539C28.9886 40.3149 29.3884 40.2029 29.8455 40.2029C30.1091 40.2029 30.3695 40.2468 30.6266 40.3347C30.8836 40.4226 31.1176 40.5654 31.3285 40.7631C31.5395 40.9587 31.7076 41.218 31.8328 41.5409C31.958 41.8639 32.0207 42.2616 32.0207 42.734V43.0636H28.1185V42.3912H31.2297C31.2297 42.1056 31.1725 41.8507 31.0583 41.6266C30.9462 41.4025 30.7858 41.2257 30.5771 41.096C30.3706 40.9664 30.1267 40.9016 29.8455 40.9016C29.5357 40.9016 29.2676 40.9785 29.0413 41.1323C28.8172 41.2839 28.6447 41.4816 28.5239 41.7255C28.403 41.9694 28.3426 42.2309 28.3426 42.5099V42.9581C28.3426 43.3404 28.4085 43.6645 28.5403 43.9304C28.6744 44.194 28.86 44.3951 29.0973 44.5335C29.3346 44.6697 29.6104 44.7378 29.9246 44.7378C30.1289 44.7378 30.3135 44.7093 30.4782 44.6521C30.6452 44.5928 30.7891 44.5049 30.91 44.3885C31.0308 44.2698 31.1242 44.1226 31.1901 43.9468L31.9416 44.1578C31.8625 44.4126 31.7295 44.6368 31.5428 44.8301C31.356 45.0213 31.1253 45.1707 30.8507 45.2783C30.576 45.3838 30.2673 45.4365 29.9246 45.4365ZM35.1154 45.4365C34.6935 45.4365 34.3211 45.33 33.9981 45.1168C33.6751 44.9015 33.4224 44.5983 33.2401 44.2072C33.0577 43.8139 32.9665 43.3492 32.9665 42.8131C32.9665 42.2814 33.0577 41.82 33.2401 41.4289C33.4224 41.0378 33.6762 40.7357 34.0014 40.5226C34.3266 40.3094 34.7023 40.2029 35.1285 40.2029C35.4581 40.2029 35.7185 40.2578 35.9096 40.3677C36.103 40.4753 36.2502 40.5984 36.3513 40.7368C36.4545 40.873 36.5347 40.9851 36.5919 41.0729H36.6578V38.5814H37.4356V45.3311H36.6841V44.5533H36.5919C36.5347 44.6455 36.4534 44.762 36.348 44.9026C36.2425 45.041 36.092 45.1652 35.8964 45.275C35.7009 45.3827 35.4405 45.4365 35.1154 45.4365ZM35.2208 44.7378C35.5328 44.7378 35.7965 44.6565 36.0118 44.4939C36.2271 44.3291 36.3908 44.1017 36.5029 43.8117C36.6149 43.5195 36.671 43.1822 36.671 42.7999C36.671 42.422 36.616 42.0913 36.5062 41.8079C36.3963 41.5223 36.2337 41.3004 36.0184 41.1422C35.8031 40.9818 35.5372 40.9016 35.2208 40.9016C34.8912 40.9016 34.6166 40.9862 34.3969 41.1553C34.1794 41.3223 34.0157 41.5497 33.9058 41.8376C33.7982 42.1232 33.7443 42.444 33.7443 42.7999C33.7443 43.1603 33.7993 43.4876 33.9091 43.7821C34.0212 44.0743 34.186 44.3072 34.4035 44.4808C34.6232 44.6521 34.8956 44.7378 35.2208 44.7378ZM41.6838 45.3311V38.5814H42.4616V41.0729H42.5275C42.5846 40.9851 42.6637 40.873 42.7648 40.7368C42.8681 40.5984 43.0153 40.4753 43.2064 40.3677C43.3998 40.2578 43.6612 40.2029 43.9908 40.2029C44.4171 40.2029 44.7928 40.3094 45.1179 40.5226C45.4431 40.7357 45.6969 41.0378 45.8793 41.4289C46.0616 41.82 46.1528 42.2814 46.1528 42.8131C46.1528 43.3492 46.0616 43.8139 45.8793 44.2072C45.6969 44.5983 45.4442 44.9015 45.1212 45.1168C44.7983 45.33 44.4258 45.4365 44.004 45.4365C43.6788 45.4365 43.4184 45.3827 43.2229 45.275C43.0273 45.1652 42.8768 45.041 42.7714 44.9026C42.6659 44.762 42.5846 44.6455 42.5275 44.5533H42.4352V45.3311H41.6838ZM42.4484 42.7999C42.4484 43.1822 42.5044 43.5195 42.6165 43.8117C42.7285 44.1017 42.8922 44.3291 43.1075 44.4939C43.3229 44.6565 43.5865 44.7378 43.8985 44.7378C44.2237 44.7378 44.4951 44.6521 44.7126 44.4808C44.9323 44.3072 45.0971 44.0743 45.2069 43.7821C45.319 43.4876 45.375 43.1603 45.375 42.7999C45.375 42.444 45.3201 42.1232 45.2102 41.8376C45.1026 41.5497 44.9389 41.3223 44.7192 41.1553C44.5016 40.9862 44.2281 40.9016 43.8985 40.9016C43.5821 40.9016 43.3163 40.9818 43.101 41.1422C42.8856 41.3004 42.723 41.5223 42.6132 41.8079C42.5033 42.0913 42.4484 42.422 42.4484 42.7999ZM47.6623 47.2294C47.5304 47.2294 47.4129 47.2184 47.3096 47.1964C47.2064 47.1767 47.1349 47.1569 47.0954 47.1371L47.2931 46.4516C47.4821 46.4999 47.6491 46.5175 47.7941 46.5043C47.9391 46.4912 48.0676 46.4263 48.1797 46.3099C48.2939 46.1956 48.3983 46.01 48.4928 45.7529L48.6378 45.3574L46.7658 40.2688H47.6095L49.0069 44.3028H49.0597L50.4571 40.2688H51.3008L49.1519 46.0693C49.0553 46.3308 48.9355 46.5472 48.7927 46.7186C48.6499 46.8921 48.484 47.0207 48.295 47.1042C48.1083 47.1877 47.8974 47.2294 47.6623 47.2294Z" fill="#494949"/>
<path d="M55.9615 45.3311V38.5814H60.5097V39.7579H57.3886V41.3663H60.2757V42.5429H57.3886V44.1545H60.5228V45.3311H55.9615ZM66.3374 40.2688L64.5675 45.3311H62.9856L61.2158 40.2688H62.6989L63.7502 43.8908H63.8029L64.851 40.2688H66.3374ZM69.1997 45.4299C68.679 45.4299 68.2308 45.3245 67.855 45.1135C67.4815 44.9004 67.1937 44.5994 66.9916 44.2105C66.7894 43.8194 66.6884 43.3569 66.6884 42.823C66.6884 42.3023 66.7894 41.8453 66.9916 41.452C67.1937 41.0587 67.4782 40.7522 67.8452 40.5324C68.2143 40.3127 68.6471 40.2029 69.1437 40.2029C69.4777 40.2029 69.7886 40.2567 70.0764 40.3644C70.3664 40.4698 70.6191 40.6291 70.8344 40.8422C71.0519 41.0554 71.2211 41.3234 71.3419 41.6464C71.4628 41.9672 71.5232 42.3429 71.5232 42.7736V43.1592H67.2486V42.2891H70.2016C70.2016 42.0869 70.1577 41.9079 70.0698 41.7519C69.9819 41.5959 69.86 41.4739 69.704 41.386C69.5502 41.296 69.3711 41.2509 69.1668 41.2509C68.9536 41.2509 68.7647 41.3004 68.5999 41.3992C68.4373 41.4959 68.3099 41.6266 68.2176 41.7914C68.1253 41.954 68.0781 42.1353 68.0759 42.3352V43.1625C68.0759 43.4129 68.122 43.6294 68.2143 43.8117C68.3088 43.9941 68.4417 44.1347 68.6131 44.2336C68.7844 44.3324 68.9877 44.3819 69.2228 44.3819C69.3788 44.3819 69.5216 44.3599 69.6512 44.316C69.7809 44.272 69.8918 44.2061 69.9841 44.1182C70.0764 44.0303 70.1467 43.9227 70.195 43.7952L71.4936 43.8809C71.4276 44.1929 71.2925 44.4654 71.0882 44.6983C70.886 44.929 70.6246 45.1091 70.3038 45.2388C69.9852 45.3662 69.6172 45.4299 69.1997 45.4299ZM72.4394 45.3311V40.2688H73.8006V41.152H73.8533C73.9456 40.8379 74.1005 40.6006 74.318 40.4402C74.5355 40.2776 74.786 40.1963 75.0694 40.1963C75.1397 40.1963 75.2155 40.2007 75.2968 40.2095C75.3781 40.2183 75.4495 40.2303 75.5111 40.2457V41.4915C75.4452 41.4717 75.354 41.4542 75.2375 41.4388C75.1211 41.4234 75.0145 41.4157 74.9178 41.4157C74.7113 41.4157 74.5267 41.4607 74.3641 41.5508C74.2038 41.6387 74.0763 41.7618 73.9818 41.92C73.8896 42.0782 73.8434 42.2605 73.8434 42.4671V45.3311H72.4394ZM78.3083 45.4299C77.7876 45.4299 77.3394 45.3245 76.9637 45.1135C76.5901 44.9004 76.3023 44.5994 76.1002 44.2105C75.898 43.8194 75.797 43.3569 75.797 42.823C75.797 42.3023 75.898 41.8453 76.1002 41.452C76.3023 41.0587 76.5869 40.7522 76.9538 40.5324C77.3229 40.3127 77.7557 40.2029 78.2523 40.2029C78.5863 40.2029 78.8972 40.2567 79.185 40.3644C79.475 40.4698 79.7277 40.6291 79.943 40.8422C80.1605 41.0554 80.3297 41.3234 80.4506 41.6464C80.5714 41.9672 80.6318 42.3429 80.6318 42.7736V43.1592H76.3573V42.2891H79.3102C79.3102 42.0869 79.2663 41.9079 79.1784 41.7519C79.0905 41.5959 78.9686 41.4739 78.8126 41.386C78.6588 41.296 78.4797 41.2509 78.2754 41.2509C78.0622 41.2509 77.8733 41.3004 77.7085 41.3992C77.5459 41.4959 77.4185 41.6266 77.3262 41.7914C77.2339 41.954 77.1867 42.1353 77.1845 42.3352V43.1625C77.1845 43.4129 77.2306 43.6294 77.3229 43.8117C77.4174 43.9941 77.5503 44.1347 77.7217 44.2336C77.8931 44.3324 78.0963 44.3819 78.3314 44.3819C78.4874 44.3819 78.6302 44.3599 78.7598 44.316C78.8895 44.272 79.0004 44.2061 79.0927 44.1182C79.185 44.0303 79.2553 43.9227 79.3036 43.7952L80.6022 43.8809C80.5363 44.1929 80.4011 44.4654 80.1968 44.6983C79.9947 44.929 79.7332 45.1091 79.4124 45.2388C79.0938 45.3662 78.7258 45.4299 78.3083 45.4299ZM85.76 41.7123L84.4747 41.7914C84.4527 41.6816 84.4055 41.5827 84.333 41.4948C84.2605 41.4047 84.1649 41.3333 84.0462 41.2806C83.9298 41.2257 83.7903 41.1982 83.6277 41.1982C83.4101 41.1982 83.2267 41.2443 83.0773 41.3366C82.9279 41.4267 82.8532 41.5475 82.8532 41.6991C82.8532 41.82 82.9015 41.9222 82.9982 42.0056C83.0949 42.0891 83.2607 42.1562 83.4958 42.2067L84.4121 42.3912C84.9042 42.4923 85.2711 42.6549 85.5128 42.879C85.7545 43.1031 85.8754 43.3975 85.8754 43.7623C85.8754 44.0941 85.7776 44.3852 85.582 44.6357C85.3887 44.8861 85.1228 45.0817 84.7845 45.2223C84.4483 45.3607 84.0605 45.4299 83.6211 45.4299C82.9509 45.4299 82.417 45.2904 82.0193 45.0114C81.6239 44.7301 81.3921 44.3478 81.3239 43.8644L82.7049 43.7919C82.7466 43.9963 82.8477 44.1523 83.0081 44.2599C83.1685 44.3654 83.3739 44.4181 83.6244 44.4181C83.8705 44.4181 84.0682 44.3709 84.2176 44.2764C84.3692 44.1797 84.4461 44.0556 84.4483 43.904C84.4461 43.7766 84.3923 43.6722 84.2868 43.5909C84.1814 43.5074 84.0188 43.4437 83.799 43.3997L82.9224 43.2251C82.428 43.1262 82.06 42.9548 81.8183 42.7109C81.5788 42.4671 81.4591 42.1562 81.4591 41.7782C81.4591 41.4531 81.547 41.1729 81.7227 40.9378C81.9007 40.7027 82.1501 40.5215 82.4709 40.394C82.7938 40.2666 83.1718 40.2029 83.6046 40.2029C84.244 40.2029 84.7471 40.338 85.114 40.6082C85.4832 40.8785 85.6985 41.2465 85.76 41.7123ZM89.4521 40.2688V41.3234H86.4035V40.2688H89.4521ZM87.0956 39.056H88.4996V43.7755C88.4996 43.9051 88.5194 44.0062 88.5589 44.0787C88.5985 44.149 88.6534 44.1984 88.7237 44.227C88.7962 44.2555 88.8797 44.2698 88.9742 44.2698C89.0401 44.2698 89.106 44.2643 89.1719 44.2533C89.2379 44.2402 89.2884 44.2303 89.3235 44.2237L89.5444 45.2684C89.474 45.2904 89.3752 45.3157 89.2477 45.3442C89.1203 45.375 88.9654 45.3937 88.783 45.4003C88.4447 45.4134 88.1481 45.3684 87.8932 45.2651C87.6405 45.1619 87.4439 45.0015 87.3032 44.784C87.1626 44.5664 87.0934 44.2918 87.0956 43.96V39.056ZM91.9288 38.5814V45.3311H90.5018V38.5814H91.9288ZM93.1029 38.5814H94.8629L96.7217 43.1163H96.8008L98.6596 38.5814H100.419V45.3311H99.0353V40.9378H98.9793L97.2325 45.2981H96.2899L94.5432 40.9213H94.4872V45.3311H93.1029V38.5814ZM105.257 40.5226C105.23 40.2567 105.117 40.0502 104.917 39.903C104.717 39.7557 104.446 39.6821 104.103 39.6821C103.87 39.6821 103.674 39.7151 103.513 39.781C103.353 39.8447 103.23 39.9337 103.144 40.048C103.061 40.1622 103.019 40.2919 103.019 40.4369C103.015 40.5577 103.04 40.6632 103.095 40.7533C103.152 40.8433 103.23 40.9213 103.329 40.9873C103.428 41.051 103.542 41.107 103.672 41.1553C103.801 41.2015 103.94 41.241 104.087 41.274L104.693 41.419C104.988 41.4849 105.258 41.5728 105.504 41.6827C105.75 41.7925 105.963 41.9276 106.143 42.088C106.324 42.2484 106.463 42.4374 106.562 42.6549C106.663 42.8724 106.715 43.1218 106.717 43.403C106.715 43.8161 106.609 44.1742 106.4 44.4775C106.194 44.7785 105.895 45.0125 105.504 45.1795C105.115 45.3442 104.646 45.4266 104.097 45.4266C103.552 45.4266 103.077 45.3431 102.673 45.1762C102.271 45.0092 101.957 44.762 101.73 44.4346C101.506 44.105 101.389 43.6975 101.378 43.2119H102.759C102.774 43.4382 102.839 43.6272 102.953 43.7788C103.07 43.9282 103.224 44.0413 103.418 44.1182C103.613 44.1929 103.834 44.2303 104.08 44.2303C104.322 44.2303 104.532 44.1951 104.71 44.1248C104.89 44.0545 105.029 43.9567 105.128 43.8315C105.227 43.7063 105.277 43.5623 105.277 43.3997C105.277 43.2481 105.232 43.1207 105.141 43.0174C105.054 42.9142 104.924 42.8263 104.753 42.7538C104.583 42.6813 104.376 42.6154 104.13 42.556L103.395 42.3715C102.826 42.2331 102.376 42.0166 102.047 41.7222C101.717 41.4278 101.554 41.0312 101.556 40.5324C101.554 40.1238 101.662 39.7667 101.882 39.4613C102.104 39.1559 102.408 38.9175 102.795 38.7462C103.182 38.5748 103.621 38.4891 104.113 38.4891C104.614 38.4891 105.051 38.5748 105.425 38.7462C105.801 38.9175 106.093 39.1559 106.302 39.4613C106.51 39.7667 106.618 40.1205 106.625 40.5226H105.257ZM109.568 39.7579V38.5814H115.111V39.7579H113.045V45.3311H111.634V39.7579H109.568ZM117.571 45.4299C117.05 45.4299 116.602 45.3245 116.226 45.1135C115.852 44.9004 115.565 44.5994 115.362 44.2105C115.16 43.8194 115.059 43.3569 115.059 42.823C115.059 42.3023 115.16 41.8453 115.362 41.452C115.565 41.0587 115.849 40.7522 116.216 40.5324C116.585 40.3127 117.018 40.2029 117.515 40.2029C117.849 40.2029 118.159 40.2567 118.447 40.3644C118.737 40.4698 118.99 40.6291 119.205 40.8422C119.423 41.0554 119.592 41.3234 119.713 41.6464C119.834 41.9672 119.894 42.3429 119.894 42.7736V43.1592H115.619V42.2891H118.572C118.572 42.0869 118.529 41.9079 118.441 41.7519C118.353 41.5959 118.231 41.4739 118.075 41.386C117.921 41.296 117.742 41.2509 117.538 41.2509C117.324 41.2509 117.136 41.3004 116.971 41.3992C116.808 41.4959 116.681 41.6266 116.588 41.7914C116.496 41.954 116.449 42.1353 116.447 42.3352V43.1625C116.447 43.4129 116.493 43.6294 116.585 43.8117C116.68 43.9941 116.813 44.1347 116.984 44.2336C117.155 44.3324 117.359 44.3819 117.594 44.3819C117.75 44.3819 117.892 44.3599 118.022 44.316C118.152 44.272 118.263 44.2061 118.355 44.1182C118.447 44.0303 118.518 43.9227 118.566 43.7952L119.864 43.8809C119.798 44.1929 119.663 44.4654 119.459 44.6983C119.257 44.929 118.995 45.1091 118.675 45.2388C118.356 45.3662 117.988 45.4299 117.571 45.4299ZM123.098 45.4299C122.579 45.4299 122.133 45.3201 121.759 45.1004C121.388 44.8784 121.102 44.5708 120.903 44.1775C120.705 43.7843 120.606 43.3316 120.606 42.8197C120.606 42.3012 120.706 41.8464 120.906 41.4553C121.108 41.062 121.395 40.7555 121.766 40.5357C122.137 40.3138 122.579 40.2029 123.091 40.2029C123.533 40.2029 123.919 40.2831 124.251 40.4435C124.583 40.6039 124.845 40.8291 125.039 41.1191C125.232 41.4091 125.339 41.7497 125.358 42.1408H124.034C123.996 41.8881 123.897 41.6849 123.737 41.5311C123.579 41.3751 123.371 41.2971 123.114 41.2971C122.896 41.2971 122.706 41.3564 122.544 41.475C122.383 41.5915 122.258 41.7618 122.168 41.9859C122.078 42.21 122.033 42.4813 122.033 42.7999C122.033 43.1229 122.077 43.3975 122.165 43.6239C122.255 43.8502 122.381 44.0226 122.544 44.1413C122.706 44.2599 122.896 44.3193 123.114 44.3193C123.274 44.3193 123.418 44.2863 123.546 44.2204C123.675 44.1545 123.782 44.0589 123.865 43.9337C123.951 43.8062 124.007 43.6535 124.034 43.4755H125.358C125.336 43.8623 125.231 44.2028 125.042 44.4972C124.855 44.7895 124.597 45.018 124.268 45.1827C123.938 45.3475 123.548 45.4299 123.098 45.4299ZM127.661 42.4044V45.3311H126.257V38.5814H127.622V41.1619H127.681C127.795 40.8631 127.98 40.6291 128.235 40.4599C128.49 40.2886 128.809 40.2029 129.194 40.2029C129.545 40.2029 129.852 40.2798 130.113 40.4336C130.377 40.5852 130.581 40.8038 130.726 41.0894C130.874 41.3729 130.946 41.7123 130.944 42.1078V45.3311H129.54V42.3583C129.542 42.0463 129.463 41.8035 129.303 41.6299C129.144 41.4564 128.922 41.3696 128.637 41.3696C128.446 41.3696 128.277 41.4102 128.129 41.4915C127.984 41.5728 127.87 41.6915 127.787 41.8475C127.705 42.0013 127.664 42.1869 127.661 42.4044ZM133.453 42.4044V45.3311H132.049V40.2688H133.387V41.1619H133.446C133.558 40.8675 133.746 40.6346 134.01 40.4632C134.273 40.2897 134.593 40.2029 134.969 40.2029C135.32 40.2029 135.627 40.2798 135.888 40.4336C136.15 40.5874 136.353 40.8071 136.498 41.0927C136.643 41.3762 136.716 41.7145 136.716 42.1078V45.3311H135.312V42.3583C135.314 42.0485 135.235 41.8068 135.074 41.6332C134.914 41.4575 134.693 41.3696 134.412 41.3696C134.223 41.3696 134.056 41.4102 133.911 41.4915C133.768 41.5728 133.656 41.6915 133.575 41.8475C133.496 42.0013 133.455 42.1869 133.453 42.4044ZM140.109 45.4299C139.597 45.4299 139.155 45.3212 138.781 45.1036C138.41 44.8839 138.123 44.5785 137.921 44.1874C137.719 43.7941 137.618 43.3382 137.618 42.8197C137.618 42.2968 137.719 41.8398 137.921 41.4487C138.123 41.0554 138.41 40.75 138.781 40.5324C139.155 40.3127 139.597 40.2029 140.109 40.2029C140.621 40.2029 141.063 40.3127 141.434 40.5324C141.808 40.75 142.096 41.0554 142.298 41.4487C142.5 41.8398 142.601 42.2968 142.601 42.8197C142.601 43.3382 142.5 43.7941 142.298 44.1874C142.096 44.5785 141.808 44.8839 141.434 45.1036C141.063 45.3212 140.621 45.4299 140.109 45.4299ZM140.116 44.3423C140.349 44.3423 140.543 44.2764 140.699 44.1446C140.855 44.0106 140.973 43.8282 141.052 43.5975C141.133 43.3668 141.174 43.1042 141.174 42.8098C141.174 42.5154 141.133 42.2528 141.052 42.0221C140.973 41.7914 140.855 41.6091 140.699 41.475C140.543 41.341 140.349 41.274 140.116 41.274C139.881 41.274 139.683 41.341 139.523 41.475C139.365 41.6091 139.245 41.7914 139.163 42.0221C139.084 42.2528 139.045 42.5154 139.045 42.8098C139.045 43.1042 139.084 43.3668 139.163 43.5975C139.245 43.8282 139.365 44.0106 139.523 44.1446C139.683 44.2764 139.881 44.3423 140.116 44.3423ZM144.918 38.5814V45.3311H143.514V38.5814H144.918ZM148.33 45.4299C147.818 45.4299 147.375 45.3212 147.002 45.1036C146.63 44.8839 146.344 44.5785 146.141 44.1874C145.939 43.7941 145.838 43.3382 145.838 42.8197C145.838 42.2968 145.939 41.8398 146.141 41.4487C146.344 41.0554 146.63 40.75 147.002 40.5324C147.375 40.3127 147.818 40.2029 148.33 40.2029C148.842 40.2029 149.283 40.3127 149.655 40.5324C150.028 40.75 150.316 41.0554 150.518 41.4487C150.72 41.8398 150.821 42.2968 150.821 42.8197C150.821 43.3382 150.72 43.7941 150.518 44.1874C150.316 44.5785 150.028 44.8839 149.655 45.1036C149.283 45.3212 148.842 45.4299 148.33 45.4299ZM148.336 44.3423C148.569 44.3423 148.764 44.2764 148.92 44.1446C149.076 44.0106 149.193 43.8282 149.272 43.5975C149.354 43.3668 149.394 43.1042 149.394 42.8098C149.394 42.5154 149.354 42.2528 149.272 42.0221C149.193 41.7914 149.076 41.6091 148.92 41.475C148.764 41.341 148.569 41.274 148.336 41.274C148.101 41.274 147.904 41.341 147.743 41.475C147.585 41.6091 147.465 41.7914 147.384 42.0221C147.305 42.2528 147.265 42.5154 147.265 42.8098C147.265 43.1042 147.305 43.3668 147.384 43.5975C147.465 43.8282 147.585 44.0106 147.743 44.1446C147.904 44.2764 148.101 44.3423 148.336 44.3423ZM154.015 47.3349C153.56 47.3349 153.17 47.2722 152.845 47.147C152.522 47.024 152.265 46.8559 152.074 46.6428C151.883 46.4296 151.758 46.1901 151.701 45.9243L153 45.7496C153.039 45.8507 153.102 45.9452 153.188 46.033C153.273 46.1209 153.387 46.1912 153.527 46.244C153.67 46.2989 153.844 46.3264 154.048 46.3264C154.353 46.3264 154.605 46.2517 154.803 46.1023C155.003 45.955 155.103 45.7079 155.103 45.3607V44.4346H155.043C154.982 44.5752 154.889 44.7082 154.766 44.8334C154.643 44.9586 154.485 45.0608 154.292 45.1399C154.098 45.219 153.868 45.2585 153.6 45.2585C153.22 45.2585 152.874 45.1707 152.562 44.9949C152.252 44.8169 152.005 44.5456 151.82 44.1808C151.638 43.8139 151.546 43.3503 151.546 42.79C151.546 42.2166 151.64 41.7376 151.827 41.3531C152.013 40.9686 152.262 40.6808 152.571 40.4896C152.883 40.2984 153.225 40.2029 153.596 40.2029C153.88 40.2029 154.117 40.2512 154.308 40.3479C154.499 40.4424 154.653 40.561 154.77 40.7038C154.888 40.8444 154.979 40.9829 155.043 41.1191H155.096V40.2688H156.49V45.3805C156.49 45.8111 156.385 46.1715 156.174 46.4615C155.963 46.7515 155.67 46.969 155.297 47.1141C154.926 47.2613 154.498 47.3349 154.015 47.3349ZM154.045 44.2039C154.271 44.2039 154.462 44.1479 154.618 44.0358C154.776 43.9216 154.897 43.759 154.981 43.5481C155.066 43.3349 155.109 43.0801 155.109 42.7834C155.109 42.4868 155.067 42.2298 154.984 42.0122C154.9 41.7925 154.78 41.6222 154.621 41.5014C154.463 41.3806 154.271 41.3201 154.045 41.3201C153.814 41.3201 153.619 41.3827 153.461 41.508C153.303 41.631 153.183 41.8024 153.102 42.0221C153.021 42.2418 152.98 42.4956 152.98 42.7834C152.98 43.0757 153.021 43.3283 153.102 43.5415C153.186 43.7524 153.305 43.9161 153.461 44.0325C153.619 44.1468 153.814 44.2039 154.045 44.2039ZM157.607 45.3311V40.2688H159.011V45.3311H157.607ZM158.313 39.6162C158.104 39.6162 157.925 39.547 157.775 39.4086C157.628 39.268 157.555 39.0999 157.555 38.9043C157.555 38.711 157.628 38.5451 157.775 38.4067C157.925 38.2661 158.104 38.1958 158.313 38.1958C158.521 38.1958 158.699 38.2661 158.846 38.4067C158.996 38.5451 159.071 38.711 159.071 38.9043C159.071 39.0999 158.996 39.268 158.846 39.4086C158.699 39.547 158.521 39.6162 158.313 39.6162ZM162.443 45.4299C161.922 45.4299 161.474 45.3245 161.098 45.1135C160.725 44.9004 160.437 44.5994 160.235 44.2105C160.033 43.8194 159.932 43.3569 159.932 42.823C159.932 42.3023 160.033 41.8453 160.235 41.452C160.437 41.0587 160.721 40.7522 161.088 40.5324C161.458 40.3127 161.89 40.2029 162.387 40.2029C162.721 40.2029 163.032 40.2567 163.32 40.3644C163.61 40.4698 163.862 40.6291 164.078 40.8422C164.295 41.0554 164.464 41.3234 164.585 41.6464C164.706 41.9672 164.766 42.3429 164.766 42.7736V43.1592H160.492V42.2891H163.445C163.445 42.0869 163.401 41.9079 163.313 41.7519C163.225 41.5959 163.103 41.4739 162.947 41.386C162.793 41.296 162.614 41.2509 162.41 41.2509C162.197 41.2509 162.008 41.3004 161.843 41.3992C161.681 41.4959 161.553 41.6266 161.461 41.7914C161.369 41.954 161.321 42.1353 161.319 42.3352V43.1625C161.319 43.4129 161.365 43.6294 161.458 43.8117C161.552 43.9941 161.685 44.1347 161.856 44.2336C162.028 44.3324 162.231 44.3819 162.466 44.3819C162.622 44.3819 162.765 44.3599 162.894 44.316C163.024 44.272 163.135 44.2061 163.227 44.1182C163.32 44.0303 163.39 43.9227 163.438 43.7952L164.737 43.8809C164.671 44.1929 164.536 44.4654 164.331 44.6983C164.129 44.929 163.868 45.1091 163.547 45.2388C163.228 45.3662 162.86 45.4299 162.443 45.4299ZM169.895 41.7123L168.609 41.7914C168.587 41.6816 168.54 41.5827 168.468 41.4948C168.395 41.4047 168.3 41.3333 168.181 41.2806C168.064 41.2257 167.925 41.1982 167.762 41.1982C167.545 41.1982 167.361 41.2443 167.212 41.3366C167.063 41.4267 166.988 41.5475 166.988 41.6991C166.988 41.82 167.036 41.9222 167.133 42.0056C167.23 42.0891 167.395 42.1562 167.63 42.2067L168.547 42.3912C169.039 42.4923 169.406 42.6549 169.647 42.879C169.889 43.1031 170.01 43.3975 170.01 43.7623C170.01 44.0941 169.912 44.3852 169.717 44.6357C169.523 44.8861 169.257 45.0817 168.919 45.2223C168.583 45.3607 168.195 45.4299 167.756 45.4299C167.086 45.4299 166.552 45.2904 166.154 45.0114C165.759 44.7301 165.527 44.3478 165.459 43.8644L166.84 43.7919C166.881 43.9963 166.982 44.1523 167.143 44.2599C167.303 44.3654 167.509 44.4181 167.759 44.4181C168.005 44.4181 168.203 44.3709 168.352 44.2764C168.504 44.1797 168.581 44.0556 168.583 43.904C168.581 43.7766 168.527 43.6722 168.421 43.5909C168.316 43.5074 168.153 43.4437 167.934 43.3997L167.057 43.2251C166.563 43.1262 166.195 42.9548 165.953 42.7109C165.713 42.4671 165.594 42.1562 165.594 41.7782C165.594 41.4531 165.682 41.1729 165.857 40.9378C166.035 40.7027 166.285 40.5215 166.606 40.394C166.928 40.2666 167.306 40.2029 167.739 40.2029C168.379 40.2029 168.882 40.338 169.249 40.6082C169.618 40.8785 169.833 41.2465 169.895 41.7123Z" fill="#404040"/>
<defs>
<clipPath id="clip0_169_13091">
<rect width="165.804" height="32.3318" fill="white"/>
</clipPath>
</defs>
</svg>
