<svg width="14" height="14" viewBox="0 0 14 14" fill="none" xmlns="http://www.w3.org/2000/svg">
<path d="M9.25925 9.24413C9.38809 9.37155 9.38927 9.57931 9.26185 9.70815C8.5327 10.4455 7.56016 10.8516 6.5234 10.8516C4.39961 10.8516 2.67176 9.12379 2.67176 7C2.67176 4.87621 4.39961 3.14839 6.5234 3.14839C7.56016 3.14839 8.53267 3.55447 9.26182 4.29182C9.38924 4.42066 9.38809 4.62842 9.25922 4.75584C9.13038 4.88327 8.92259 4.88212 8.7952 4.75325C8.19027 4.14151 7.3835 3.80464 6.5234 3.80464C4.76145 3.80464 3.32804 5.23808 3.32804 7C3.32804 8.76192 4.76148 10.1954 6.5234 10.1954C7.3835 10.1954 8.19027 9.85846 8.7952 9.24673C8.92262 9.11788 9.13038 9.11668 9.25925 9.24413ZM10.0817 5.61761C9.95359 5.48945 9.74586 5.48945 9.6177 5.61761C9.48954 5.74577 9.48957 5.95353 9.6177 6.08166L10.2079 6.67187H6.5234C6.34219 6.67187 6.19527 6.81879 6.19527 7C6.19527 7.18121 6.34219 7.32812 6.5234 7.32812H10.2079L9.6177 7.91837C9.48954 8.04653 9.48957 8.25429 9.6177 8.38242C9.68177 8.44648 9.76574 8.47853 9.84971 8.47853C9.93368 8.47853 10.0177 8.44651 10.0817 8.38242L11.2321 7.23204C11.2936 7.17052 11.3282 7.08704 11.3282 7.00003C11.3282 6.91302 11.2937 6.82954 11.2321 6.76802L10.0817 5.61761ZM14 7C14 10.8598 10.8598 14 7 14C3.14018 14 0 10.8598 0 7C0 3.14021 3.14018 0 7 0C10.8598 0 14 3.14018 14 7ZM13.3437 7C13.3437 3.50205 10.4979 0.65625 7 0.65625C3.50205 0.65625 0.65625 3.50205 0.65625 7C0.65625 10.4979 3.50205 13.3437 7 13.3437C10.4979 13.3437 13.3437 10.4979 13.3437 7Z" fill="#212529"/>
</svg>
