<svg width="20" height="19" viewBox="0 0 20 19" fill="none" xmlns="http://www.w3.org/2000/svg">
<path opacity="0.4" d="M20 13.107C20 15.897 17.76 18.157 14.97 18.167H14.96H5.05C2.27 18.167 0 15.917 0 13.127V13.117C0 13.117 0.006 8.69099 0.014 6.46499C0.015 6.04699 0.495 5.81299 0.822 6.07299C3.198 7.95799 7.447 11.395 7.5 11.44C8.21 12.009 9.11 12.33 10.03 12.33C10.95 12.33 11.85 12.009 12.56 11.429C12.613 11.394 16.767 8.05999 19.179 6.14399C19.507 5.88299 19.989 6.11699 19.99 6.53399C20 8.74299 20 13.107 20 13.107Z" fill="#8A92A6"/>
<path d="M19.4761 2.84002C18.6101 1.20802 16.9061 0.166016 15.0301 0.166016H5.05013C3.17413 0.166016 1.47013 1.20802 0.604128 2.84002C0.410128 3.20502 0.502128 3.66002 0.825128 3.91802L8.25013 9.85702C8.77013 10.277 9.40013 10.486 10.0301 10.486C10.0341 10.486 10.0371 10.486 10.0401 10.486C10.0431 10.486 10.0471 10.486 10.0501 10.486C10.6801 10.486 11.3101 10.277 11.8301 9.85702L19.2551 3.91802C19.5781 3.66002 19.6701 3.20502 19.4761 2.84002Z" fill="#8A92A6"/>
</svg>
