<svg width="15" height="16" viewBox="0 0 15 16" fill="none" xmlns="http://www.w3.org/2000/svg">
<path d="M4.29444 13.0576H12.9455C13.5279 13.0576 14 12.5855 14 12.0031C14 11.4207 13.5279 10.9485 12.9455 10.9485H2.05453C1.47211 10.9485 1 11.4207 1 12.0031C1 12.5855 1.47211 13.0576 2.05453 13.0576H3.42703" stroke="#212529" stroke-width="0.6" stroke-miterlimit="10" stroke-linecap="round" stroke-linejoin="round"/>
<path d="M11.2761 4.1314C10.7527 2.93982 9.6854 2.0732 7.50016 2.0732C0.507347 2.0732 4.96265 10.9473 2.05469 10.9473" stroke="#212529" stroke-width="0.6" stroke-miterlimit="10" stroke-linecap="round" stroke-linejoin="round"/>
<path d="M12.9456 10.9473C11.1376 10.9473 12.176 7.51685 11.5396 4.92169" stroke="#212529" stroke-width="0.6" stroke-miterlimit="10" stroke-linecap="round" stroke-linejoin="round"/>
<path d="M5.39111 13.0569C5.39111 14.2218 6.33537 15.166 7.5002 15.166C8.66499 15.166 9.60928 14.2218 9.60928 13.0569" stroke="#212529" stroke-width="0.6" stroke-miterlimit="10" stroke-linecap="round" stroke-linejoin="round"/>
<path d="M8.57205 2.15527C8.57436 2.12867 8.57523 2.10179 8.57523 2.07461C8.57523 1.48103 8.09384 0.99964 7.50026 0.99964C6.9064 0.99964 6.42529 1.48103 6.42529 2.07461C6.42529 2.10179 6.42616 2.12867 6.42847 2.15527" stroke="#212529" stroke-width="0.6" stroke-miterlimit="10" stroke-linecap="round" stroke-linejoin="round"/>
<path d="M11.0874 1.95352C11.0874 1.95352 12.7353 2.86424 12.7353 5.42285" stroke="#212529" stroke-width="0.6" stroke-miterlimit="10" stroke-linecap="round" stroke-linejoin="round"/>
<path d="M12.7354 2.04025C12.7354 2.04025 13.6894 2.64738 13.6894 4.17969" stroke="#212529" stroke-width="0.6" stroke-miterlimit="10" stroke-linecap="round" stroke-linejoin="round"/>
<path d="M3.91258 1.95352C3.91258 1.95352 2.26465 2.86424 2.26465 5.42285" stroke="#212529" stroke-width="0.6" stroke-miterlimit="10" stroke-linecap="round" stroke-linejoin="round"/>
<path d="M2.26463 2.04025C2.26463 2.04025 1.31055 2.64738 1.31055 4.17969" stroke="#212529" stroke-width="0.6" stroke-miterlimit="10" stroke-linecap="round" stroke-linejoin="round"/>
</svg>
