<svg width="18" height="21" viewBox="0 0 18 21" fill="none" xmlns="http://www.w3.org/2000/svg">
<path d="M16.7695 9.81135C16.039 8.95831 15.7071 8.21907 15.7071 6.96317V6.53615C15.7071 4.89955 15.3304 3.84508 14.5115 2.79061C13.2493 1.15301 11.1244 0.166016 9.04423 0.166016H8.95577C6.91935 0.166016 4.86106 1.10769 3.577 2.67882C2.71333 3.75444 2.29293 4.85423 2.29293 6.53615V6.96317C2.29293 8.21907 1.98284 8.95831 1.23049 9.81135C0.676907 10.4398 0.5 11.2475 0.5 12.1217C0.5 12.9969 0.787226 13.8258 1.36367 14.4996C2.11602 15.3073 3.17846 15.8229 4.26375 15.9126C5.83505 16.0918 7.40634 16.1593 9.0005 16.1593C10.5937 16.1593 12.165 16.0465 13.7372 15.9126C14.8215 15.8229 15.884 15.3073 16.6363 14.4996C17.2118 13.8258 17.5 12.9969 17.5 12.1217C17.5 11.2475 17.3231 10.4398 16.7695 9.81135Z" fill="#8A92A6"/>
<path opacity="0.4" d="M11.0088 17.3945C10.5088 17.2878 7.46266 17.2878 6.96275 17.3945C6.53539 17.4932 6.07324 17.7228 6.07324 18.2264C6.09809 18.7068 6.37935 19.1308 6.76895 19.3997L6.76795 19.4007C7.27184 19.7935 7.86319 20.0433 8.48236 20.1329C8.81232 20.1782 9.14825 20.1762 9.49014 20.1329C10.1083 20.0433 10.6997 19.7935 11.2036 19.4007L11.2026 19.3997C11.5922 19.1308 11.8734 18.7068 11.8983 18.2264C11.8983 17.7228 11.4361 17.4932 11.0088 17.3945Z" fill="#8A92A6"/>
</svg>
