<svg width="14" height="14" viewBox="0 0 14 14" fill="none" xmlns="http://www.w3.org/2000/svg">
<g clip-path="url(#clip0_322_89)">
<path d="M6.9381 13.9998C6.86169 13.9998 6.78702 13.9695 6.7316 13.9147C6.66277 13.8458 6.63244 13.7467 6.65169 13.651L7.0641 11.5883C7.07577 11.5318 7.1026 11.4798 7.14402 11.4396L11.6812 6.90242C12.0219 6.56117 12.5778 6.56117 12.9184 6.90242L13.7433 7.72725C14.0845 8.0685 14.0845 8.62325 13.7433 8.9645L9.2061 13.5017C9.16585 13.5425 9.11393 13.5699 9.05677 13.5816L6.99469 13.994C6.97602 13.9981 6.95677 13.9998 6.9381 13.9998ZM7.61944 11.7896L7.31027 13.3366L8.85668 13.0274L13.3314 8.55267C13.4452 8.43892 13.4452 8.254 13.3314 8.14025L12.5066 7.31542C12.3929 7.20167 12.2079 7.20167 12.0942 7.31542L7.61944 11.7896Z" fill="#212529"/>
<path d="M7.875 8.75033H2.04167C1.88067 8.75033 1.75 8.61966 1.75 8.45866C1.75 8.29766 1.88067 8.16699 2.04167 8.16699H7.875C8.036 8.16699 8.16667 8.29766 8.16667 8.45866C8.16667 8.61966 8.036 8.75033 7.875 8.75033Z" fill="#212529"/>
<path d="M6.70833 10.5003H2.04167C1.88067 10.5003 1.75 10.3697 1.75 10.2087C1.75 10.0477 1.88067 9.91699 2.04167 9.91699H6.70833C6.86933 9.91699 7 10.0477 7 10.2087C7 10.3697 6.86933 10.5003 6.70833 10.5003Z" fill="#212529"/>
<path d="M4.95817 4.08333C4.31475 4.08333 3.7915 3.56008 3.7915 2.91667C3.7915 2.27325 4.31475 1.75 4.95817 1.75C5.60159 1.75 6.12484 2.27325 6.12484 2.91667C6.12484 3.56008 5.60159 4.08333 4.95817 4.08333ZM4.95817 2.33333C4.63617 2.33333 4.37484 2.59525 4.37484 2.91667C4.37484 3.23808 4.63617 3.5 4.95817 3.5C5.28017 3.5 5.5415 3.23808 5.5415 2.91667C5.5415 2.59525 5.28017 2.33333 4.95817 2.33333Z" fill="#212529"/>
<path d="M7 7.00032C6.839 7.00032 6.70833 6.86966 6.70833 6.70866V6.12533C6.70833 5.64291 6.31575 5.25033 5.83333 5.25033H4.08333C3.60092 5.25033 3.20833 5.64291 3.20833 6.12533V6.70866C3.20833 6.86966 3.07767 7.00032 2.91667 7.00032C2.75567 7.00032 2.625 6.86966 2.625 6.70866V6.12533C2.625 5.32149 3.27892 4.66699 4.08333 4.66699H5.83333C6.63775 4.66699 7.29167 5.32149 7.29167 6.12533V6.70866C7.29167 6.86966 7.161 7.00032 7 7.00032Z" fill="#212529"/>
<path d="M5.54167 12.25H1.45833C0.653917 12.25 0 11.5955 0 10.7917V1.45833C0 0.6545 0.653917 0 1.45833 0H8.45834C9.26275 0 9.91667 0.6545 9.91667 1.45833V6.70833C9.91667 6.86933 9.786 7 9.625 7C9.464 7 9.33334 6.86933 9.33334 6.70833V1.45833C9.33334 0.975917 8.94075 0.583333 8.45834 0.583333H1.45833C0.975917 0.583333 0.583333 0.975917 0.583333 1.45833V10.7917C0.583333 11.2741 0.975917 11.6667 1.45833 11.6667H5.54167C5.70267 11.6667 5.83333 11.7973 5.83333 11.9583C5.83333 12.1193 5.70267 12.25 5.54167 12.25Z" fill="#212529"/>
</g>
<defs>
<clipPath id="clip0_322_89">
<rect width="14" height="14" fill="white"/>
</clipPath>
</defs>
</svg>
