<svg width="434" height="205" viewBox="0 0 434 205" fill="none" xmlns="http://www.w3.org/2000/svg">
<path d="M3.06227 41.8971V25.0683H69.9267V41.8971H46.7871V102H26.2019V41.8971H3.06227ZM98.8231 69.5444V102H78.0876V25.0683H98.0718V55.27H98.6728C99.9751 51.5887 102.141 48.7213 105.171 46.6678C108.202 44.5892 111.845 43.5499 116.103 43.5499C120.185 43.5499 123.728 44.4765 126.733 46.3297C129.764 48.1829 132.105 50.7372 133.758 53.9928C135.436 57.2484 136.262 60.9798 136.237 65.187V102H115.502V69.5444C115.527 66.6895 114.813 64.4482 113.36 62.8204C111.933 61.1926 109.892 60.3787 107.237 60.3787C105.56 60.3787 104.082 60.7544 102.805 61.5057C101.553 62.2319 100.576 63.2837 99.8749 64.6611C99.1987 66.0134 98.8481 67.6412 98.8231 69.5444ZM146.473 102V44.3012H167.209V102H146.473ZM156.841 38.2909C154.036 38.2909 151.632 37.3643 149.629 35.5112C147.625 33.658 146.624 31.4292 146.624 28.8247C146.624 26.2203 147.625 23.9915 149.629 22.1383C151.632 20.2851 154.036 19.3585 156.841 19.3585C159.671 19.3585 162.075 20.2851 164.054 22.1383C166.057 23.9915 167.059 26.2203 167.059 28.8247C167.059 31.4292 166.057 33.658 164.054 35.5112C162.075 37.3643 159.671 38.2909 156.841 38.2909ZM198.509 69.5444V102H177.774V44.3012H197.458V55.27H198.059C199.311 51.6137 201.515 48.7463 204.67 46.6678C207.85 44.5892 211.557 43.5499 215.789 43.5499C219.871 43.5499 223.414 44.489 226.42 46.3673C229.45 48.2204 231.791 50.7748 233.444 54.0304C235.122 57.286 235.948 61.0048 235.923 65.187V102H215.188V69.5444C215.213 66.6895 214.487 64.4482 213.009 62.8204C211.557 61.1926 209.528 60.3787 206.924 60.3787C205.221 60.3787 203.731 60.7544 202.454 61.5057C201.201 62.2319 200.237 63.2837 199.561 64.6611C198.885 66.0134 198.534 67.6412 198.509 69.5444ZM264.792 88.3266L264.942 63.6844H267.646L281.62 44.3012H304.91L281.47 74.5029H275.61L264.792 88.3266ZM246.16 102V25.0683H266.895V102H246.16ZM281.771 102L268.548 79.1609L282.071 64.4357L305.511 102H281.771ZM326.388 102.902C322.706 102.902 319.451 102.301 316.621 101.098C313.816 99.8714 311.612 98.0182 310.01 95.5389C308.407 93.0597 307.606 89.9043 307.606 86.0727C307.606 82.9173 308.144 80.2252 309.221 77.9964C310.298 75.7425 311.8 73.9019 313.728 72.4745C315.657 71.047 317.898 69.9576 320.452 69.2064C323.032 68.4551 325.812 67.9667 328.792 67.7413C332.022 67.4909 334.614 67.1904 336.568 66.8398C338.546 66.4642 339.973 65.9508 340.85 65.2997C341.726 64.6235 342.165 63.7345 342.165 62.6326V62.4823C342.165 60.9798 341.589 59.8278 340.437 59.0264C339.285 58.2251 337.807 57.8244 336.004 57.8244C334.026 57.8244 332.41 58.2626 331.158 59.1391C329.931 59.9906 329.192 61.3053 328.942 63.0834H309.859C310.11 59.5774 311.224 56.3468 313.203 53.3918C315.206 50.4117 318.124 48.0326 321.955 46.2546C325.787 44.4515 330.57 43.5499 336.305 43.5499C340.437 43.5499 344.143 44.0383 347.424 45.0149C350.704 45.9666 353.497 47.3064 355.801 49.0343C358.104 50.7372 359.857 52.7407 361.06 55.0446C362.287 57.3235 362.9 59.8028 362.9 62.4823V102H343.517V93.8861H343.066C341.914 96.0398 340.512 97.7803 338.859 99.1075C337.231 100.435 335.366 101.399 333.262 102C331.183 102.601 328.892 102.902 326.388 102.902ZM333.149 89.8292C334.727 89.8292 336.204 89.5036 337.582 88.8525C338.984 88.2014 340.124 87.2623 341 86.0352C341.877 84.8081 342.315 83.318 342.315 81.565V76.7568C341.764 76.9822 341.175 77.195 340.549 77.3954C339.948 77.5957 339.297 77.7835 338.596 77.9588C337.92 78.1341 337.194 78.2969 336.417 78.4472C335.666 78.5974 334.877 78.7352 334.051 78.8604C332.448 79.1108 331.133 79.524 330.107 80.1C329.105 80.651 328.354 81.3396 327.853 82.166C327.377 82.9674 327.139 83.869 327.139 84.8707C327.139 86.4734 327.702 87.7005 328.829 88.552C329.956 89.4034 331.396 89.8292 333.149 89.8292Z" fill="black"/>
<path d="M433.112 35.8367C433.112 35.9465 433.219 36.3309 433.432 36.9898C433.753 37.5389 433.859 37.8134 433.753 37.8134H409.258V68.2878C409.258 69.4958 409.204 70.7038 409.098 71.9118C409.098 73.1198 409.151 74.3278 409.258 75.5358C409.258 76.4143 409.258 77.3478 409.258 78.3361C409.258 79.3245 409.151 80.2579 408.938 81.1365C408.617 82.1248 408.137 83.0583 407.497 83.9368C406.963 84.7055 406.376 85.4743 405.736 86.243C404.989 86.9019 404.188 87.5608 403.334 88.2197C402.587 88.7688 401.787 89.263 400.933 89.7022C399.118 90.5808 397.304 91.075 395.49 91.1848C394.102 91.1848 392.715 91.0201 391.327 90.6906C390.046 90.3611 388.765 89.9219 387.485 89.3728H387.325C387.965 90.1415 388.605 90.8553 389.246 91.5142C389.886 92.1731 390.527 92.832 391.167 93.491L391.967 94.3146C391.967 94.3146 392.074 94.3695 392.288 94.4793C392.288 94.4793 392.341 94.5342 392.448 94.644V94.8088C392.661 95.0284 392.768 95.1382 392.768 95.1382C392.981 95.248 393.195 95.4128 393.408 95.6324C393.835 96.0717 394.262 96.5109 394.689 96.9502C395.116 97.2797 395.543 97.664 395.97 98.1033C397.677 99.6407 399.385 101.233 401.093 102.88C402.801 104.418 404.455 106.065 406.056 107.822C408.938 111.007 411.659 114.301 414.221 117.706C416.782 121 419.13 124.569 421.265 128.413C425.641 135.881 428.469 143.952 429.75 152.628C431.031 161.633 430.444 170.693 427.989 179.808C426.815 184.31 425.161 188.593 423.026 192.656C420.891 196.72 418.437 200.563 415.662 204.187C415.448 204.407 415.075 204.407 414.541 204.187C414.007 203.968 413.687 203.858 413.58 203.858C413.047 203.638 412.566 203.418 412.14 203.199C411.713 203.089 411.232 202.924 410.699 202.705C409.525 202.156 408.297 201.606 407.016 201.057C405.842 200.508 404.722 199.794 403.654 198.916C403.121 198.477 402.587 198.037 402.053 197.598C401.52 197.159 400.986 196.72 400.453 196.28C400.239 196.061 400.026 195.841 399.812 195.621C399.705 195.512 399.812 195.402 400.132 195.292C400.666 195.292 401.253 195.402 401.893 195.621L403.334 196.116C403.548 196.225 403.708 196.28 403.815 196.28C403.921 196.28 404.081 196.335 404.295 196.445C405.576 194.798 406.75 193.041 407.817 191.174C408.884 189.417 409.898 187.55 410.859 185.573C414.594 177.776 416.782 169.54 417.423 160.864C418.17 152.188 417.209 143.733 414.541 135.496C412.833 130.664 410.805 126.217 408.457 122.153C406.216 118.2 403.708 114.466 400.933 110.952C398.158 107.438 395.223 104.088 392.127 100.904L389.726 98.4327H389.566C389.352 98.2131 389.246 98.1033 389.246 98.1033C389.032 97.8837 388.872 97.664 388.765 97.4444C388.125 97.0051 387.645 96.6208 387.325 96.2913L382.041 91.3495C380.227 89.5924 378.466 87.8353 376.758 86.0783C375.157 84.3212 373.61 82.3994 372.115 80.3128C371.902 79.9834 371.955 79.8187 372.276 79.8187C372.596 79.8187 372.863 79.8736 373.076 79.9834C373.716 80.0932 374.357 80.3128 374.997 80.6423C375.744 80.8619 376.438 81.0816 377.078 81.3012C378.679 81.9601 380.28 82.7837 381.881 83.7721C382.095 83.8819 382.362 84.0466 382.682 84.2663C383.002 84.3761 383.322 84.5408 383.642 84.7604C384.923 84.7604 386.257 84.4859 387.645 83.9368C390.953 82.5092 393.568 80.1481 395.49 76.8536C396.237 75.4259 396.61 73.8885 396.61 72.2412V37.8134H368.273C368.06 37.8134 367.846 37.6487 367.633 37.3192C367.419 36.8799 367.206 36.5505 366.992 36.3309C366.459 35.7818 366.032 35.1778 365.712 34.5189C365.285 33.86 364.858 33.2011 364.431 32.5421C364.111 31.8832 363.79 31.2243 363.47 30.5654C363.043 29.7967 362.67 29.0829 362.35 28.424C362.35 28.3142 362.243 27.9847 362.029 27.4356C361.709 26.7767 361.602 26.4473 361.709 26.4473H427.189C427.402 26.4473 427.616 26.6669 427.829 27.1062C428.042 27.4356 428.256 27.7102 428.469 27.9298C429.323 28.9182 430.177 30.236 431.031 31.8832C431.351 32.4323 431.671 33.0912 431.992 33.86C432.418 34.5189 432.792 35.1778 433.112 35.8367Z" fill="#FFC815"/>
<path d="M30.8799 132.371C29.9113 131.542 29.0044 130.655 27.8957 132.067C27.6307 132.404 26.8504 131.7 26.2659 131.812C25.7987 131.901 25.2101 131.256 24.98 132.522C24.9345 132.772 23.7896 133.7 23.023 133.018C22.7625 132.786 22.5585 132.722 22.3975 132.942C21.9111 133.609 21.5637 134.048 21.625 132.53C21.6484 131.953 21.3171 131.915 21.0314 132.118C20.5087 132.489 19.9675 132.779 19.4164 133.067C18.6528 133.467 18.3105 133.482 17.43 133.494C16.9091 133.501 16.1356 133.182 15.8018 134.264C15.5414 135.108 14.7853 134.476 14.2881 135.156C13.782 135.849 12.7387 135.612 11.9184 135.729C10.7223 135.9 9.56405 136.338 8.53629 137.265C7.90559 137.835 7.77894 138.84 7.63655 139.643C7.44093 140.748 7.74512 141.971 8.64918 142.533C9.68563 143.177 10.718 143.422 11.758 142.539C12.6714 141.764 13.7699 141.79 14.8078 141.533C15.6778 141.317 16.7922 142.018 17.3712 140.3C17.5659 139.722 18.3789 140.439 18.8252 140.668C19.2206 140.87 19.4546 141.215 19.9626 140.983C21.1253 140.45 22.4108 140.165 23.5785 140.046C24.8649 139.914 26.1769 139.63 27.4849 139.671C29.8182 139.743 32.1041 139.065 34.4631 139.379C35.4972 139.517 36.4986 138.588 37.6053 138.616C39.1131 138.654 40.624 138.464 42.1246 138.638C42.8098 138.718 43.4434 138.634 44.0851 138.5C46.9196 137.907 49.8067 138.079 52.6535 137.753C53.9781 137.602 55.4419 138.139 56.6515 136.939C56.7989 136.793 56.9439 137.211 57.2112 137.213C59.8868 137.237 62.5405 136.75 65.197 136.773C66.8356 136.786 68.474 136.408 70.12 136.753C70.3655 136.804 70.5703 136.779 70.8059 136.664C71.7557 136.198 72.6765 135.741 73.7632 136.385C74.3973 136.761 75.0956 135.866 75.7128 135.988C76.5537 136.154 77.4496 135.136 78.3074 136.441C78.5082 136.746 79.4337 136.039 80.0413 135.954C82.0129 135.679 83.9716 134.914 85.9853 135.675C86.7135 135.95 87.184 135.165 87.8519 135.161C88.614 135.155 89.3526 135.879 90.1196 135.371C90.2546 135.281 90.4641 135.381 90.5885 135.279C91.7355 134.341 93.1813 134.19 94.2871 134.548C96.1243 135.143 97.8815 134.834 99.5815 134.577C103.474 133.989 107.473 134.667 111.279 133.256C111.879 133.033 112.365 133.508 112.89 133.58C115.448 133.931 117.94 133.277 120.46 133.214C122.972 133.153 125.506 133.066 128.021 132.765C130.636 132.452 133.267 132.293 135.912 132.268C137.991 132.248 140.106 132.288 142.152 132.008C144.685 131.66 147.242 131.673 149.765 131.545C152.226 131.421 154.695 131.036 157.199 131.236C159.689 131.436 162.187 131.044 164.678 130.785C166.364 130.611 168.149 130.862 169.851 130.688C172.562 130.411 175.293 130.685 178 130.228C179.769 129.929 181.601 130.507 183.417 130.335C185.962 130.093 188.527 130.106 191.083 130.011C191.123 130.01 191.165 130.026 191.204 130.018C192.085 129.842 192.808 129.158 193.898 129.715C194.88 130.217 196.112 129.628 197.236 129.617C198.338 129.606 199.449 129.654 200.546 129.644C203.926 129.613 207.301 129.069 210.673 129.291C213.053 129.448 215.403 128.524 217.797 129.426C218.325 129.624 218.948 129.298 219.523 129.184C221.24 128.846 222.958 128.816 224.676 129.421C225.135 129.582 224.89 128.642 225.485 128.663C226.992 128.714 228.5 129.01 230 128.947C230.762 128.915 231.564 128.971 232.282 128.765C233.877 128.307 235.494 128.932 237.071 128.566C237.485 128.47 238.001 129.7 238.237 128.109C238.547 128.983 238.156 129.877 238.778 130.151C239.398 130.423 239.431 129.579 239.638 129.095C239.797 128.723 240.056 128.548 240.352 128.659C241.868 129.231 243.372 128.611 244.889 128.805C245.291 128.857 245.431 128.936 245.587 129.383C245.639 129.532 245.915 129.699 246.002 129.637C246.318 129.41 245.956 129.237 245.913 129.034C245.848 128.731 245.98 128.549 246.126 128.573C247.362 128.779 248.614 127.89 249.712 128.258C251.075 128.717 252.152 128.546 253.268 127.685C253.415 127.571 253.601 127.621 253.688 127.851C253.877 128.352 253.245 128.264 253.374 128.806C253.883 128.866 254.482 128.539 254.894 129.359C255.032 129.632 255.374 129.503 255.44 129.346C255.866 128.336 256.536 128.979 257.078 128.821C259.083 128.239 261.064 128.634 263.074 128.745C264.135 128.804 265.283 128.429 266.369 128.562C267.892 128.748 269.426 128.009 270.955 129.054C271.749 129.597 272.504 128.627 273.303 128.463C274.372 128.245 275.211 129.163 276.186 129.347C276.936 129.489 277.571 130.908 278.444 129.303C278.828 128.596 279.917 127.859 280.916 128.974C281.216 129.308 281.814 129.622 282.301 129.089C283.138 128.174 284.117 128.835 284.968 129.032C286.6 129.409 288.264 127.813 289.832 129.456C290.242 129.886 290.279 129.183 290.521 129.2C290.84 129.221 291.384 128.41 291.389 129.697C291.39 129.975 291.683 130.122 291.873 129.909C292.965 128.684 294.194 128.915 295.51 129.155C296.041 129.251 296.641 129.143 297.227 129.213C297.596 129.257 297.921 129.026 298.084 129.694C298.197 130.159 298.557 130.122 298.69 130.012C300.264 128.711 302.022 129.698 303.679 129.498C305.311 129.301 306.984 129.602 308.636 129.61C310.065 129.617 311.519 130.065 312.923 129.274C313.089 129.181 313.764 129.974 314.267 129.878C315.701 129.602 317.174 129.85 318.59 129.916C319.916 129.979 321.196 130.017 322.492 129.723C322.685 129.679 322.934 129.975 323.15 130.133C323.491 130.382 323.925 130.614 324.173 130.25C324.625 129.585 325.028 129.973 325.544 130.036C328.155 130.354 330.763 130.513 333.389 130.431C334.717 130.39 336.12 130.67 337.495 130.584C339.076 130.486 340.655 130.822 342.261 130.5C342.921 130.367 343.917 131.026 344.757 130.918C347.778 130.527 350.827 130.929 353.846 131.031C357.231 131.145 360.64 130.878 364.032 131.623C364.316 131.685 364.717 131.63 364.723 131.057C364.727 130.723 364.394 130.286 364.91 130.235C365.23 130.204 365.621 130.194 365.662 130.805C365.725 131.748 366.208 131.668 366.635 131.677C371.745 131.793 376.852 132.154 381.959 132.684C382.552 132.746 383.17 132.261 383.726 132.965C384.016 131.466 384.462 133.33 384.863 132.919C385.286 132.487 385.971 132.922 386.341 132.579C387.078 131.898 387.119 133.24 387.612 133.262C388.673 133.31 389.734 133.551 390.795 133.62C391.345 133.656 391.895 133.493 392.445 133.421L392.42 133.467C392.511 132.508 392.014 132.199 391.531 132.304C390.637 132.498 389.807 132.028 388.948 131.942C387.739 131.821 386.523 131.796 385.321 131.781C384.736 131.774 383.823 131.413 383.091 131.043C382.444 130.717 381.682 131.594 381.082 130.553C381.016 130.439 380.618 130.577 380.543 130.989C380.511 131.162 380.521 131.558 380.321 131.351C379.101 130.087 377.654 130.548 376.327 130.137C375.147 129.771 373.565 129.157 372.77 129.888C371.435 131.116 370.754 129.618 369.784 129.355C369.043 129.153 368.278 129.068 367.526 129.059C365.322 129.031 363.124 128.936 360.917 128.623C359.128 128.369 357.324 128.436 355.526 128.364C353.201 128.27 350.875 128.235 348.55 128.075C345.421 127.86 342.285 127.324 339.168 127.372C337.489 127.398 335.8 127.021 334.106 127.405C333.089 127.635 331.965 127.167 330.893 126.964C329.866 126.769 328.844 126.943 327.822 126.911C325.993 126.854 324.14 126.959 322.33 126.835C320.689 126.722 319.055 126.597 317.406 126.539C314.588 126.44 311.757 126.315 308.947 126.059C306.158 125.804 303.367 125.558 300.533 125.497C300.392 125.887 300.813 125.865 300.881 126.085C301.013 126.515 300.776 126.852 300.5 126.931C300.187 127.021 300.132 126.709 300.141 126.301C300.171 124.888 299.695 124.822 298.866 125.236C297.737 125.799 296.514 125.317 295.334 125.373C293.507 125.459 291.686 124.607 289.822 125.091C289.159 125.263 288.362 124.895 287.621 124.816C286.616 124.71 285.601 124.777 284.591 124.644C283.436 124.491 282.195 124.328 281.064 124.492C277.609 124.994 274.156 123.813 270.74 124.148C268.502 124.367 266.273 124.058 264.042 124.164C261.727 124.274 259.374 123.872 257.047 124.05C255.854 124.142 254.608 123.542 253.546 123.796C252.353 124.081 251.194 123.654 250.063 123.948C248.253 124.42 246.406 123.351 244.631 123.96C243.753 124.262 242.977 124.556 242.197 123.586C242.063 123.419 241.756 123.276 241.638 123.371C240.21 124.521 238.583 123.522 237.103 123.99C236.343 124.229 235.612 123.299 234.89 123.761C233.612 124.58 232.238 123.861 230.936 124.143C229.817 124.385 228.574 123.263 227.559 124.575C224.108 123.469 220.672 124.63 217.24 124.186C215.14 123.914 213.132 124.56 211.062 124.433C206.107 124.129 201.175 124.61 196.231 124.621C193.48 124.627 190.72 124.656 187.975 124.725C185.321 124.792 182.65 124.799 179.993 125.063C178.57 125.204 177.113 124.969 175.685 125.397C175.183 125.547 174.668 125.056 174.084 125.037C172.76 124.995 171.473 125.475 170.1 125.046C169.018 124.708 167.879 125.427 166.707 125.256C166.149 125.175 165.5 125.2 165.08 124.848C164.203 124.111 163.808 124.476 163.57 125.656C162.6 124.328 161.918 124.349 160.923 125.536C160.443 126.107 159.679 124.997 159.208 125.899C158.647 125.125 158.014 126.115 157.54 125.777C156.264 124.865 154.639 125.784 153.513 123.975C153.29 123.615 152.666 124.337 152.226 124.555C151.315 125.009 150.679 126.547 149.457 125.772C148.892 127.044 148.04 125.624 147.322 126.166C147.568 125.598 147.627 124.499 147.447 124.687C146.562 125.611 146.045 123.942 145.282 124.325C145.967 124.623 145.931 125.32 145.657 125.89C145.342 126.544 144.924 126.064 144.636 125.697C144.013 124.906 143.678 125.856 143.312 126.109C142.781 126.477 142.332 125.982 141.903 125.911C141.531 125.849 142.183 125.224 142.178 124.547C141.809 124.949 141.55 125.465 141.012 124.939C140.205 124.148 139.159 124.387 138.261 124.22C137.482 124.075 136.709 125.236 136.68 126.703C137.311 125.53 138.079 124.883 139.356 125.39C138.457 126.314 137.661 126.858 136.68 126.696C135.641 126.779 135.711 124.96 134.9 124.389C134.838 125.261 135.296 125.417 135.465 125.848C135.769 126.624 135.118 126.563 135.096 126.994C134.578 126.152 134.144 127.152 133.633 127.057C132.876 126.916 132.175 126.964 132.724 125.47C132.894 125.008 132.843 124.454 132.536 124.114C131.99 123.509 132.245 124.672 132.018 124.616C131.531 124.496 131.104 125.328 130.568 124.627C130.326 124.311 128.286 125.4 128.153 125.819C127.79 126.961 126.867 127.128 126.233 126.162C125.994 125.799 125.787 125.862 125.495 126.07C125.06 126.379 124.573 126.555 123.961 126.861C124.125 126.269 124.274 125.914 124.315 125.532C124.351 125.203 124.227 124.875 123.969 124.711C123.647 124.505 123.685 124.965 123.592 125.13C123.196 125.831 122.572 125.946 122.172 125.491C121.585 124.824 121.085 125.351 120.566 125.315C119.729 125.258 120.618 126.193 120.227 126.598C119.833 126.269 119.75 125.192 119.032 125.341C119.25 125.702 119.469 126.019 119.649 126.375C119.775 126.625 119.733 127.118 119.575 127.069C118.663 126.789 117.618 128.342 116.798 126.473C116.553 125.915 116.044 125.297 115.56 126.416C115.17 127.316 114.778 126.355 114.533 126.031C114.234 125.633 113.918 125.298 113.604 125.557C113.293 125.813 113.544 126.367 113.617 126.786C113.751 127.559 113.755 127.558 113.03 127.435C112.996 127.43 112.959 127.416 112.928 127.428C112.568 127.562 112.132 128.435 111.873 127.406C111.709 126.755 112.503 126.946 112.667 126.383C112.134 126.276 111.607 126.161 111.078 126.068C110.639 125.991 110.048 125.424 109.99 126.659C109.977 126.935 109.734 127.002 109.622 126.854C109.109 126.174 108.511 127.116 107.893 126.423C107.136 125.573 106.23 126.672 105.352 126.518C104.773 126.415 104.064 127.541 103.64 126.027C103.621 125.959 103.265 125.924 103.2 126.032C102.569 127.08 101.717 126.716 100.902 126.705C100.315 126.696 99.7103 126.824 100.457 128.145C99.6051 127.764 99.074 126.677 98.2864 127.352C98.5132 127.854 98.9442 127.627 99.2923 127.897C98.6104 128.872 97.4664 127.509 96.8797 129.074C96.9033 127.449 96.241 126.882 95.2989 127.233C94.7674 127.432 94.0495 127.067 94.3472 128.515C94.424 128.889 93.786 128.917 93.4852 129.064C93.2491 129.179 92.93 128.889 93.0357 128.337C93.1651 127.661 92.9948 127.49 92.5592 127.795C92.3663 127.93 92.1538 127.978 91.9926 127.774C91.093 126.639 90.5099 127.463 90.0147 128.352C89.6527 129.001 89.5368 129.049 89.0675 128.36C88.4091 127.392 87.4838 127.334 86.5645 127.69C86.668 128.159 87.3423 128.067 87.0874 128.806C86.8466 129.504 86.5518 128.831 86.2881 128.862C86.1357 128.881 85.9829 128.964 85.8442 129.057C84.8529 129.716 83.8828 129.14 82.9236 128.777C82.1752 128.494 81.5994 129.643 80.7542 129.037C80.5711 128.906 79.933 130.091 79.8009 128.614C79.1502 129.465 78.3253 128.434 77.6182 128.906C77.0411 129.292 76.4506 129.329 75.7686 128.963C74.8034 128.446 74.7077 128.62 74.445 130.41C74.3016 129.685 73.2213 130.07 73.9186 128.882C73.2987 128.627 72.7012 128.628 72.0801 128.885C71.1254 129.28 70.1364 129.328 69.1434 128.942C68.9982 128.886 68.8596 128.792 68.718 128.715C68.5199 130.531 67.1801 129.317 66.6119 130.158C66.4936 130.333 66.3258 130.376 66.1773 130.226C65.4545 129.495 65.1883 129.491 64.4317 130.411C64.1633 130.737 63.8438 130.954 63.5837 130.7C63.2453 130.369 64.0268 130.296 63.7598 129.849C62.6237 130.607 62.6237 130.607 62.1433 129.58C62.0178 130.416 62.067 131.741 61.1361 130.431C60.8279 129.998 60.6959 129.949 60.7895 130.748C60.8596 131.347 60.3954 131.115 60.2456 130.828C59.6079 129.606 58.8034 129.565 57.9005 129.949C57.8715 130.656 58.917 130.025 58.557 130.841C58.33 131.355 57.4197 131.34 57.2934 130.919C56.9832 129.885 56.5015 130.341 56.0654 130.257C55.811 130.208 55.4422 130.406 55.3748 129.83C55.3297 129.444 55.1355 129.273 55.0163 129.517C54.3551 130.87 53.1291 130.073 52.308 130.825C52.0234 131.086 51.8172 131.097 51.7314 130.26C51.6456 129.425 51.0421 130.383 50.6969 130.158C50.3828 130.958 51.3802 130.491 51.0744 131.025C50.8853 131.354 50.5277 131.719 50.0682 131.259C49.5536 130.743 49.1607 129.84 48.3503 131.082C47.744 132.011 48.5293 130.163 47.8121 130.357C47.4837 130.899 47.4712 131.875 46.9071 132.528C47.0377 131.894 46.1344 131.785 46.6033 130.911C46.8135 130.519 46.4321 130.554 46.2796 130.519C45.5154 130.345 44.7522 130.555 44.0939 130.928C43.311 131.371 42.2997 131.158 41.746 132.295C40.8254 130.89 40.0276 132.605 39.1646 132.354C38.5861 132.185 38.0513 132.183 37.5159 132.499C37.0274 132.787 36.6958 132.663 36.7056 131.78C36.7116 131.25 36.3714 131.337 36.206 131.377C35.3762 131.583 34.569 131.869 33.7351 131.196C33.5525 131.048 33.1393 131.417 33.1845 131.633C33.4378 132.844 32.61 132.306 32.3629 132.674C31.8568 132.728 31.3376 132.939 30.8799 132.371Z" fill="black"/>
</svg>
