<?xml version="1.0" encoding="utf-8"?>
<!-- Generator: Adobe Illustrator 25.2.1, SVG Export Plug-In . SVG Version: 6.00 Build 0)  -->
<svg version="1.1" id="Layer_1" xmlns="http://www.w3.org/2000/svg" xmlns:xlink="http://www.w3.org/1999/xlink" x="0px" y="0px"
	 width="450px" height="170px" viewBox="0 0 450 170" style="enable-background:new 0 0 450 170;" xml:space="preserve">
<style type="text/css">
	.st0{fill:#FFFFFF;}
	.st1{fill:#E1121C;}
	.st2{fill:#182646;}
	.st3{fill:none;}
	.st4{fill:#A9ADB1;}
</style>
<rect class="st0" width="450" height="170"/>
<g>
	<path class="st1" d="M85.9,85.9H43.3C19.4,85.9,0,66.5,0,42.6V0h42.6c23.9,0,43.3,19.4,43.3,43.3C85.9,43.3,85.9,85.9,85.9,85.9z"
		/>
	<path class="st2" d="M450,170H144.8c-35.3,0-60-21-60-47V85h308.3c27.6,0.9,56.9,15.5,56.9,46.9L450,170L450,170z"/>
	<path class="st3" d="M206.5,38.2V73h-10.9V45.9c0-1.9-0.4-3.9-1.3-5.6c-2-4-5.3-6.6-9.1-6.6c-2.5,0-4.8,1.1-6.6,3
		c-2.2,2.3-3.3,5.5-3.3,8.7V73h-10.9V45.9c0-1.9-0.4-3.9-1.3-5.6c-2-4-5.3-6.6-9.1-6.6c-3.7,0-7,2.5-8.9,6.3
		c-0.9,1.8-1.3,3.8-1.3,5.7V73h-10.9V24.6h10.9v7.6c2.5-5.3,8.3-8.9,15-8.9c2.5,0,4.8,0.5,6.9,1.4c4.1,1.7,6.3,4.4,7.7,8.4
		c0.2-0.6,0.5-1.3,0.8-1.9c2.7-4.9,9.3-7.9,15.7-7.9c2.5,0,4.8,0.5,6.9,1.4C202.5,27,206.5,32.2,206.5,38.2z"/>
	<path class="st4" d="M115.5,53.4c0,4.8,3.8,8.7,8.5,8.7h4v10.6h-6.9c-2-0.3-3.9-0.8-5.6-1.7c-3.9-1.9-7-5-8.9-9
		c-1.2-2.5-1.9-5.4-1.9-8.4V34.5h-6.2v-9.9h6.2V12h10.9v12.7h12.9v9.9h-12.9L115.5,53.4L115.5,53.4z"/>
	<path class="st3" d="M206.5,24.6v13.6c0-6-3.9-11.2-9.5-13.6H206.5z"/>
	<path class="st1" d="M249,24.6c-4.3,2.6-7.8,5.8-10,9.9h-10.5V73h-10.9V34.5h-9.3c-0.5-3.7-2.6-6.9-6-9.9h15.3v-7
		c0-2,0.6-4,1.7-5.6c2.6-4.1,7.9-7,14-7c3.2,0,6.1,0.8,8.6,2v10.5c-1.4-1.8-4.3-2.6-6.6-2.6c-4.2,0-6.2,3.4-6.2,8v1.7H249z"/>
	<path class="st3" d="M219.3,12c-1.1,1.7-1.7,3.6-1.7,5.6V12H219.3z"/>
	<path class="st1" d="M263.5,23.9c-14.1,0-25.5,11.4-25.5,25.5s11.4,25.5,25.5,25.5S289,63.5,289,49.4S277.6,23.9,263.5,23.9z
		 M263.5,63.8c-8,0-14.4-6.5-14.4-14.4c0-8,6.5-14.4,14.4-14.4c8,0,14.5,6.5,14.5,14.4C277.9,57.4,271.5,63.8,263.5,63.8z"/>
	<path class="st1" d="M319.4,24.6V37c0,0-12.3-2.4-16,15.8V73h-10.8V24.6h10.8V37C307,25.2,319.4,24.6,319.4,24.6z"/>
	<path class="st4" d="M206.5,38.2V73h-10.9V45.9c0-1.9-0.4-3.9-1.3-5.6c-2-4-5.3-6.6-9.1-6.6c-2.5,0-4.8,1.1-6.6,3
		c-2.2,2.3-3.3,5.5-3.3,8.7V73h-10.9V45.9c0-1.9-0.4-3.9-1.3-5.6c-2-4-5.3-6.6-9.1-6.6c-3.7,0-7,2.5-8.9,6.3
		c-0.9,1.8-1.3,3.8-1.3,5.7V73h-10.9V24.6h10.9v7.6c2.5-5.3,8.3-8.9,15-8.9c2.5,0,4.8,0.5,6.9,1.4c4.1,1.7,6.3,4.4,7.7,8.4
		c0.2-0.6,0.5-1.3,0.8-1.9c2.7-4.9,9.3-7.9,15.7-7.9c2.5,0,4.8,0.5,6.9,1.4C202.5,27,206.5,32.2,206.5,38.2z"/>
	<path class="st1" d="M428.4,38.2V73h-10.8V45.9c0-1.9-0.4-3.9-1.2-5.6c-2-4-5.3-6.6-9.1-6.6c-2.5,0-4.8,1.1-6.6,3
		c-2.2,2.3-3.3,5.5-3.3,8.7V73h-10.9V45.8c0-1.9-0.4-3.9-1.3-5.6c-2-4-5.3-6.6-9.1-6.6c-3.7,0-7,2.5-9,6.3c-0.9,1.8-1.3,3.8-1.3,5.8
		V73h-10.9v-6.7c0,0.1,0,0.2,0,0.2c-2.7,4.9-9.3,7.9-15.7,7.9c-2.5,0-4.8-0.5-6.9-1.4c-5.6-2.4-9.5-7.6-9.5-13.6V24.6h10.9v27.1
		c0,1.9,0.4,3.9,1.3,5.6c2,4,5.3,6.6,9.1,6.6c2.5,0,4.8-0.1,6.6-2c2.2-2.3,4.4-5.2,4.4-8.4V24.6H366v7.6c2.5-5.3,8.3-8.9,15-8.9
		c2.5,0,4.8,0.5,6.9,1.4c4.1,1.7,6.3,4.4,7.7,8.4c0.2-0.7,0.5-1.3,0.8-1.9c2.7-4.9,9.2-7.9,15.7-7.9c2.5,0,4.8,0.5,6.9,1.4
		C424.5,27,428.4,32.2,428.4,38.2z"/>
	<polygon class="st0" points="186.9,106.8 186.9,145.9 178.8,145.9 178.8,119.8 171.7,130.3 167.3,136.8 162.9,130.3 155.8,119.8 
		155.8,145.9 147.8,145.9 147.8,106.8 155.9,106.8 167.3,123.8 178.8,106.8 178.8,106.8 178.8,106.8 	"/>
	<polygon class="st0" points="269.5,106.8 269.5,145.9 261.5,145.9 261.5,119.8 254.4,130.3 250,136.8 245.6,130.3 238.5,119.8 
		238.5,145.9 230.4,145.9 230.4,106.8 238.5,106.8 250,123.8 261.4,106.8 261.5,106.8 261.5,106.8 	"/>
	<polygon class="st0" points="203,113.5 203,123 221.7,123 221.7,129.7 203,129.7 203,139.2 224.4,139.2 224.4,145.9 195,145.9 
		195,106.8 224.4,106.8 224.4,113.5 	"/>
	<path class="st0" d="M306.3,127.2c-1-0.7-2-1.2-3.2-1.6c1.1-0.7,2.2-1.5,3-2.5c1.4-1.7,2.2-3.8,2.2-6.1c0-2.2-0.7-4.2-2-5.8
		c-1.9-2.6-5.1-4.3-8.8-4.3h-20.7V146h22.9c2.5,0,4.7-0.8,6.6-2.1c2.7-1.9,4.4-4.9,4.4-8.3C310.7,132.1,309,129.1,306.3,127.2z
		 M285,113.5h9.7c3.5,0,6.4,2.1,6.4,4.8c0,2.6-2.9,4.8-6.4,4.8H285V113.5z M296.7,139.2H285v-9.5h11.7c3.5,0,6.4,2.1,6.4,4.8
		C303.1,137.1,300.2,139.2,296.7,139.2z"/>
	<polygon class="st0" points="323.9,113.5 323.9,123 343,123 343,129.7 323.9,129.7 323.9,139.2 345.2,139.2 345.2,145.9 
		315.8,145.9 315.8,106.8 345.2,106.8 345.2,113.5 	"/>
	<path class="st0" d="M380.8,140.5l-0.9-1.2l-4.7-6.5l-0.7-1c2.4-0.4,4.6-1.5,6.3-3.3c2.3-2.3,3.7-5.5,3.7-9.2
		c0-3.6-1.4-6.9-3.7-9.2c-2.1-2.1-4.8-3.4-7.9-3.4h-21.5v39.1h8.1v-13.2h7.5l4.7,6.5l4.8,6.7h8.2L380.8,140.5z M370.4,126h-10.9
		v-12.5h10.4c3.9,0,7.1,2.8,7.1,6.3C377,123.1,374.1,125.8,370.4,126L370.4,126z"/>
	<polygon class="st3" points="380.8,139.2 380.8,140.5 379.9,139.2 	"/>
	<path class="st3" d="M370.4,126h-0.5C370.1,126,370.2,126,370.4,126L370.4,126z"/>
	<path class="st3" d="M363,125.9C363,126,363.1,126,363,125.9l-0.1,0.1L363,125.9z"/>
	<path class="st3" d="M370.4,126h-0.5C370.1,126,370.2,126,370.4,126L370.4,126z"/>
	<path class="st4" d="M126.1,72.8c-0.8,0.1-1.7,0.2-2.5,0.2c-0.9,0-1.7-0.1-2.5-0.2H126.1z"/>
</g>
</svg>
