<svg width="100" height="100" viewBox="0 0 100 100" fill="none" xmlns="http://www.w3.org/2000/svg">
<path d="M15.8307 85.6618H84.1691C92.6358 77.0287 97.8591 65.2033 97.8591 52.156C97.8591 25.7243 76.4318 4.29688 49.9999 4.29688C23.568 4.29688 2.14075 25.7241 2.14075 52.156C2.14094 65.2033 7.36419 77.0287 15.8307 85.6618Z" fill="#7E6DD1"/>
<path d="M74.0485 42.4122C72.8694 39.6259 72.7512 36.5211 73.5513 33.6033C74.1901 31.2742 74.5327 28.8116 74.5327 26.2637C74.5327 11.7588 63.4404 0 49.7575 0C36.0746 0 24.9823 11.7588 24.9823 26.2639C24.9823 28.8118 25.3249 31.2744 25.9637 33.6035C26.7638 36.5213 26.6458 39.6259 25.4666 42.4122C25.1489 43.1627 24.9823 43.939 24.9823 44.7339C24.9823 51.222 36.0746 58.3799 49.7575 58.3799C63.4404 58.3799 74.5327 51.222 74.5327 44.7339C74.5327 43.9392 74.3661 43.1627 74.0485 42.4122Z" fill="#56415E"/>
<path d="M74.0541 47.1178C66.2412 49.7106 63.1851 41.8778 63.1851 41.8778C63.1851 41.8778 54.4984 36.2779 47.1418 22.3885C41.4015 11.551 48.6762 3.24795 52.1502 0.122479C51.3626 0.0423892 50.5648 0 49.7573 0C36.0743 0 24.9821 11.7588 24.9821 26.2639C24.9821 28.8118 25.3247 31.2744 25.9635 33.6035C26.7636 36.5213 26.6456 39.6259 25.4663 42.4122C25.1487 43.1627 24.9821 43.939 24.9821 44.7341C24.9821 51.2222 36.0743 58.3801 49.7573 58.3801C61.7755 58.3801 71.7938 52.8579 74.0541 47.1178Z" fill="#45304C"/>
<path d="M66.04 30.8291C65.9847 31.1082 65.9269 31.3897 65.8634 31.6757C65.632 32.719 65.5431 33.7954 65.6097 34.8688C65.6771 35.9543 65.6958 37.5407 65.4712 39.3593C67.9651 40.3305 68.7834 39.0749 69.0487 38.0675C69.2579 37.2732 69.5724 36.512 70.0016 35.8115C70.2967 35.3296 70.6329 34.7336 70.9447 34.0724C71.5784 32.7284 70.6487 31.1606 69.1639 31.1043C68.1005 31.0641 67.0587 30.9701 66.04 30.8291Z" fill="#FFADA3"/>
<path d="M34.4356 34.8684C34.5023 33.795 34.4134 32.7189 34.1819 31.6754C33.7943 29.9292 33.5625 28.3112 33.44 26.8291C32.3074 26.2601 30.3753 25.6981 28.9116 27.4058C26.8296 29.8347 28.7729 33.8089 29.9988 35.8109C30.428 36.5114 30.7425 37.2727 30.9517 38.0669C31.2186 39.0802 32.0447 40.3444 34.5722 39.3417C34.3497 37.5305 34.3684 35.9504 34.4356 34.8684Z" fill="#FF988A"/>
<path d="M48.4692 71.5945L48.5251 71.6164H51.4148L51.4802 71.6097C51.7481 71.5535 57.8089 70.1847 61.0975 61.3809C58.661 59.5679 58.089 54.8414 57.5851 52.3022C52.8236 55.0985 47.1765 55.0905 42.4199 52.2783C41.912 54.8256 41.3404 59.614 38.8619 61.4102C39.7482 63.8848 42.3019 69.1834 48.4692 71.5945Z" fill="#FFADA3"/>
<path d="M58.3047 55.9349C57.9855 54.5935 57.7798 53.2841 57.5848 52.3022C52.8234 55.0985 47.1762 55.0905 42.4198 52.2783C41.912 54.8256 41.3402 59.614 38.8617 61.4102C39.6415 63.5873 41.7127 67.9486 46.398 70.608C46.6492 70.5156 46.8139 70.4773 46.8139 70.4773C48.1498 67.8012 48.9331 64.0793 49.3516 61.4731C49.6157 59.8275 50.8908 58.5359 52.5294 58.2327C55.1784 57.7422 57.5051 56.4252 58.3047 55.9349Z" fill="#FF988A"/>
<path d="M60.8349 61.168C58.779 66.7317 55.5777 69.3045 53.4883 70.4473C52.4575 71.011 51.2985 71.2968 50.1238 71.2968C48.9703 71.2968 47.8287 71.0251 46.8139 70.4766C41.9208 67.8323 39.8572 63.3335 39.1211 61.2053C38.7457 61.5262 38.3249 61.7776 37.8475 61.9329C35.4509 62.7133 32.03 62.979 28.6637 63.6338C29.5734 66.0042 34.0163 75.8092 45.7692 77.3649V99.8263C46.7768 99.9146 47.7922 99.9748 48.8167 99.9996H51.1837C52.2081 99.9748 53.2236 99.9146 54.2312 99.8263V77.3649C64.7476 73.6527 69.5949 66.1695 71.0101 63.5716C67.7502 62.9614 64.472 62.6881 62.1529 61.9329C61.6565 61.7716 61.2211 61.5071 60.8349 61.168Z" fill="#DEEEFF"/>
<path d="M39.1211 61.2051C38.7457 61.526 38.3249 61.7774 37.8475 61.9327C35.4509 62.7131 32.03 62.9788 28.6637 63.6336C29.5076 65.8323 33.3923 74.4266 43.3304 76.9016C43.7755 76.1782 43.983 75.6004 43.8849 75.2154C42.9067 71.373 46.8139 70.4762 46.8139 70.4762C41.9208 67.8322 39.8572 63.3333 39.1211 61.2051Z" fill="#D3DCFB"/>
<path d="M33.0555 70.2158C32.6418 71.3521 32.5498 72.6994 32.786 74.2469C31.6092 74.5475 27.1423 75.9929 27.1423 80.5842V94.2079C32.8834 97.3359 39.3346 99.3249 46.1944 99.8646V77.3653C39.9265 76.5357 35.7382 73.3593 33.0555 70.2158Z" fill="#FC90CE"/>
<path d="M27.4354 94.3675C27.4354 90.3044 27.4354 83.8941 27.4354 80.5842C27.4354 75.5067 33.1195 74.4702 33.1195 74.4702C32.831 72.8184 32.9317 71.5088 33.2757 70.4702C30.7259 67.5709 29.4703 64.6447 29.0603 63.5586C23.7272 64.5492 18.4245 66.4266 17.432 72.7789C16.7572 77.097 16.2316 81.5947 15.8309 85.6615C19.2209 89.1185 23.1318 92.0617 27.4354 94.3675Z" fill="#FF7ACB"/>
<path d="M84.1693 85.6617C83.7687 81.5949 83.243 77.0972 82.5683 72.7791C81.5563 66.301 76.0617 64.4769 70.6235 63.501C69.2571 66.0338 64.4154 73.6201 53.8058 77.3652V99.8645C65.6695 98.9311 76.315 93.6706 84.1693 85.6617Z" fill="#FC90CE"/>
<path d="M66.2473 30.8583C57.8784 29.7564 51.0595 25.5009 46.8209 22.1357C46.2824 22.8878 46.0149 23.8221 46.112 24.7777C46.2599 26.2328 46.5037 27.7999 46.8746 29.4716C47.1329 30.6353 47.2319 31.8356 47.1577 33.0331C46.9155 36.9393 47.2292 46.6523 55.4459 52.1533C55.8785 52.4428 56.3212 52.7091 56.7716 52.9542C57.325 52.6753 57.8665 52.3624 58.3916 52.0107C65.7581 47.0787 66.0394 38.3704 65.8224 34.8685C65.7558 33.7951 65.8447 32.7188 66.0762 31.6755C66.1373 31.3994 66.1936 31.1277 66.2473 30.8583Z" fill="#FFC1BB"/>
<path d="M55.4863 51.7841C47.4652 46.4139 47.1591 36.932 47.3954 33.1189C47.4679 31.9502 47.3712 30.7784 47.119 29.6422C46.7569 28.0104 46.5189 26.4806 46.3746 25.0601C46.2755 24.0857 46.5613 23.1317 47.1352 22.382C45.5702 21.1601 44.3307 20.0392 43.4712 19.2083C42.7248 18.4867 41.5209 18.5402 40.8445 19.3276C38.9076 21.5822 36.7433 23.1186 35.0082 24.1096C33.8211 24.7876 33.1474 26.1073 33.2855 27.4671C33.4181 28.7718 33.6367 30.1767 33.9692 31.6754C34.2007 32.7187 34.2896 33.795 34.223 34.8684C34.0059 38.3705 34.287 47.0787 41.6538 52.0107C46.3316 55.1426 52.2661 55.3905 57.145 52.759C56.5789 52.4689 56.0247 52.1445 55.4863 51.7841Z" fill="#FFADA3"/>
<path d="M58.7863 58.2102C58.7863 58.2102 64.7625 66.4108 54.3584 76.0945C54.006 76.4225 53.8054 76.8835 53.8054 77.365C53.8054 78.5091 54.8917 79.3446 55.996 79.0449C59.0918 78.2052 64.8512 76.2982 69.1763 72.8532C73.3142 69.5572 73.7131 63.3898 70.0919 59.5332C68.2855 57.6095 65.2732 55.9868 62.4993 54.4442C61.2382 53.7427 59.7157 53.7017 58.4167 54.3301C58.402 54.3371 58.3872 54.3443 58.3723 54.3516C57.8818 54.5885 57.6232 55.1363 57.7537 55.665C57.9305 56.3812 58.2502 57.3852 58.7863 58.2102Z" fill="#FFBBE5"/>
<path d="M39.6693 66.1846L39.6394 66.2041C39.049 66.209 35.9119 66.341 34.0338 68.5302C32.8387 69.9234 32.4193 71.846 32.786 74.2473C32.7827 74.2481 32.7784 74.2495 32.7749 74.2502C36.7567 76.8264 41.3551 78.327 44.0041 79.0457C45.1084 79.3453 46.1947 78.5099 46.1947 77.3657C46.1947 76.8842 45.994 76.4232 45.6416 76.0952C41.7418 72.4654 40.1435 69.044 39.6693 66.1846Z" fill="#FFBBE5"/>
<path d="M41.2138 58.2102C41.7498 57.3853 42.0698 56.3814 42.2464 55.6651C42.3769 55.1361 42.1182 54.5884 41.6277 54.3514C41.6129 54.3442 41.598 54.3372 41.5834 54.3299C40.2844 53.7017 38.7619 53.7427 37.5007 54.444C34.7267 55.9866 31.7143 57.6095 29.9082 59.5333C26.2869 63.3899 26.6858 69.557 30.8238 72.8532C31.5543 73.4352 32.3265 73.9723 33.1192 74.4689C31.6985 66.3339 39.7257 66.4966 39.7257 66.4966C38.7763 61.556 41.2138 58.2102 41.2138 58.2102Z" fill="#FC90CE"/>
<path d="M38.9305 89.6753C38.1118 89.6753 37.4418 89.0055 37.4418 88.1866V75.9584C37.4418 75.1397 38.1116 74.4697 38.9305 74.4697C39.7492 74.4697 40.4192 75.1396 40.4192 75.9584V88.1866C40.4192 89.0055 39.7493 89.6753 38.9305 89.6753Z" fill="#DEEEFF"/>
<path d="M61.0695 89.6753C60.2508 89.6753 59.5808 89.0055 59.5808 88.1866V75.9584C59.5808 75.1397 60.2506 74.4697 61.0695 74.4697C61.8882 74.4697 62.5582 75.1396 62.5582 75.9584V88.1866C62.5582 89.0055 61.8884 89.6753 61.0695 89.6753Z" fill="#DEEEFF"/>
<path d="M19.0529 38.5021C19.8538 31.1676 15.1566 26.8111 10.9898 24.4248C5.41805 32.2484 2.14099 41.8194 2.14099 52.1559C2.14099 61.1336 4.61422 69.5328 8.91545 76.7116C9.37196 70.9613 10.6325 64.825 16.1966 61.2702C27.1682 54.2603 17.6529 51.3226 19.0529 38.5021Z" fill="#9589E8"/>
<path d="M80.9473 38.5021C80.1464 31.1676 84.8436 26.8111 89.0105 24.4248C94.582 32.2484 97.8592 41.8194 97.8592 52.1559C97.8592 61.1336 95.386 69.5328 91.0848 76.7116C90.6283 70.9613 89.3677 64.825 83.8036 61.2702C72.8318 54.2603 82.3473 51.3226 80.9473 38.5021Z" fill="#9589E8"/>
<path d="M77.3259 91.4455C77.3259 89.1282 77.3259 86.075 77.3259 83.3882C77.3259 80.2434 75.091 78.3603 73.3366 77.3664C72.4136 76.8437 71.2703 77.517 71.2703 78.5779V95.0355C73.3823 93.9853 75.4053 92.784 77.3259 91.4455Z" fill="#FF7ACB"/>
</svg>
