<svg width="100" height="100" viewBox="0 0 100 100" fill="none" xmlns="http://www.w3.org/2000/svg">
<path d="M91.8233 75.41C95.6619 68.5232 97.852 60.5918 97.852 52.1478C97.852 25.7199 76.428 4.2959 50 4.2959C23.5721 4.2959 2.14807 25.7199 2.14807 52.1478C2.14807 60.5918 4.33811 68.5232 8.17678 75.41H91.8233Z" fill="#FF4155"/>
<path d="M64.473 61.5252C64.4738 61.5246 64.4744 61.5238 64.4744 61.5238C64.3592 61.4914 64.2418 61.4617 64.1252 61.4309C64.0865 61.4207 64.0482 61.4096 64.0096 61.3994L64.0088 61.4C63.6156 61.2967 63.2205 61.1969 62.8205 61.1045C60.8377 59.1217 60.335 55.3625 60.2445 52.7324C59.2098 53.9377 58.1238 54.9459 57.0861 55.7516C55.0643 57.3217 52.5695 58.1744 50 58.1744C47.4305 58.1744 44.9355 57.3217 42.9139 55.7516C41.8762 54.9459 40.79 53.9375 39.7553 52.7324C39.6646 55.3625 39.1621 59.1217 37.1791 61.1045C36.7736 61.198 36.3729 61.2996 35.9742 61.4043C35.9742 61.4043 35.9738 61.4039 35.9734 61.4037C35.9365 61.4133 35.9 61.4238 35.8631 61.4336C35.7451 61.4648 35.6264 61.4949 35.5088 61.5271C35.5088 61.5271 35.5104 61.5285 35.5109 61.5291C33.6838 62.0295 31.9205 62.6414 30.1973 63.3639V68.025C33.4096 72.4158 37.7076 75.1533 40.1678 76.1873C41.2734 76.652 42.452 76.8875 43.6709 76.8875H47.1248L47.9695 77.1805H52.0301L52.8748 76.8875H56.3287C57.5475 76.8875 58.726 76.6518 59.8316 76.1873C62.2779 75.159 66.5416 72.4469 69.748 68.0992V63.3416C68.0373 62.6275 66.2867 62.0215 64.473 61.5252Z" fill="#FFAA7B"/>
<path d="M42.9139 55.7518C41.8762 54.9459 40.79 53.9377 39.7553 52.7324C39.6646 55.3625 39.1621 59.1217 37.1793 61.1045C36.7736 61.198 36.373 61.2996 35.9744 61.4045C35.9744 61.4045 35.974 61.4041 35.9736 61.4039C35.9367 61.4137 35.9002 61.424 35.8633 61.434C35.7453 61.4652 35.6266 61.4953 35.509 61.5275C35.509 61.5275 35.5105 61.5289 35.5113 61.5295C34.7982 61.7248 34.0975 61.9422 33.4023 62.1715C35.3383 66.7939 39.402 74.7543 43.7012 72.5494C49.6678 69.4894 50 58.1744 50 58.1744C47.4305 58.1744 44.9355 57.3217 42.9139 55.7518Z" fill="#FC9460"/>
<path d="M67.165 70.915C64.5057 73.3727 61.6609 74.8334 59.8318 75.6022C58.7262 76.0668 57.5476 76.3023 56.3289 76.3023H52.875L52.0303 76.5953C50.5767 76.5953 49.4232 76.5953 47.9697 76.5953L47.125 76.3023H43.6711C42.4523 76.3023 41.2738 76.0666 40.168 75.6022C39.7748 75.4369 39.3326 75.2375 38.8574 75.0053V89.5412C38.8574 89.5412 35.1322 93.2205 37.8758 98.4475C41.7482 99.4588 45.8105 100 50 100C61.6221 100 72.2754 95.8555 80.5656 88.9652C80.5656 88.7264 80.5656 88.4895 80.5656 88.2578C80.5656 80.9814 71.8447 74.0896 67.165 70.915Z" fill="#FFC839"/>
<path d="M39.248 89.5408V75.192C37.4643 74.3566 35.0922 72.9971 32.8482 70.9268C28.1781 74.0932 19.4531 80.9814 19.4531 88.2547V88.9809C24.8674 93.4762 31.2889 96.8 38.3287 98.5648C35.4664 93.2756 39.248 89.5408 39.248 89.5408Z" fill="#FFB332"/>
<path d="M91.8232 75.4104C91.7814 75.3297 91.7406 75.2479 91.6984 75.1682C90.1357 72.2287 87.5113 69.9953 84.3801 68.8645L71.1322 64.0801C71.3762 64.5721 71.5422 65.3 71.0701 66.1018C69.8352 68.2 68.3205 69.9043 66.7637 71.277C71.1391 74.1932 80.0021 80.9869 80.0021 88.1709V89.4242C84.7863 85.5688 88.8125 80.8119 91.8232 75.4104Z" fill="#FFDD40"/>
<path d="M28.9297 66.1018C28.4576 65.3 28.6238 64.5721 28.8676 64.0801L15.6197 68.8645C12.4887 69.9953 9.86426 72.2287 8.30156 75.1682C8.25918 75.2479 8.21836 75.3297 8.17676 75.4104C11.1875 80.8117 15.2135 85.5687 19.9979 89.4242C19.9979 88.9959 19.9979 88.5768 19.9979 88.1709C19.9979 80.9869 28.8607 74.1934 33.2361 71.277C31.6793 69.9043 30.1648 68.2 28.9297 66.1018Z" fill="#FFC839"/>
<path d="M72.4887 57.2713C71.0412 53.8939 66.3465 51.9199 60.1658 49.8506L59.7418 53.2352C59.7418 53.2352 63.6424 68.6273 52.0303 76.5949H57.6783C59.2604 76.5949 60.825 76.2623 62.2662 75.6094C64.0779 74.7883 66.6186 73.4537 68.883 71.6031C73.1154 68.1441 74.642 62.2955 72.4887 57.2713Z" fill="#FEE77F"/>
<path d="M40.7 66.6566C38.549 66.103 33.034 65.381 31.5648 71.9601C33.7109 73.6265 36.0406 74.8427 37.7338 75.6101C39.1748 76.2632 40.7394 76.5956 42.3215 76.5956H47.9695C43.9715 73.8523 41.8127 70.2288 40.7 66.6566Z" fill="#FEE77F"/>
<path d="M40.2582 53.2352L39.8342 49.8506C33.6535 51.9199 28.9588 53.8937 27.5114 57.2713C25.358 62.2955 26.8846 68.1441 31.1172 71.6029C31.3707 71.8102 31.628 72.0098 31.8869 72.2039C33.3539 64.3506 40.9145 67.3051 40.9145 67.3051L40.9147 67.3037C38.4744 60.2795 40.2582 53.2352 40.2582 53.2352Z" fill="#FFDD40"/>
<path d="M39.2481 89.5414C38.3315 89.5414 37.5817 88.7916 37.5817 87.875V74.1869C37.5817 73.2703 38.3315 72.5205 39.2481 72.5205C40.1647 72.5205 40.9145 73.2703 40.9145 74.1869V87.875C40.9145 88.7916 40.1647 89.5414 39.2481 89.5414Z" fill="#DEEEFF"/>
<path d="M60.6977 89.5414C59.7811 89.5414 59.0312 88.7916 59.0312 87.875V74.1869C59.0312 73.2703 59.7811 72.5205 60.6977 72.5205C61.6143 72.5205 62.3641 73.2703 62.3641 74.1869V87.875C62.3641 88.7916 61.6143 89.5414 60.6977 89.5414Z" fill="#DEEEFF"/>
<path d="M80.3906 15.1846C76.9197 17.5566 74.2929 21.1889 75.2076 26.6494C77.6041 40.9566 66.5654 48.2559 83.8176 55.9266C89.9513 58.6539 93.8146 61.8445 96.2203 64.5725C97.2836 60.6104 97.8519 56.4455 97.8519 52.1477C97.8519 37.2602 91.0527 23.9609 80.3906 15.1846Z" fill="#FF7186"/>
<path d="M19.6094 15.1846C23.0803 17.5566 25.7071 21.1889 24.7924 26.6494C22.3959 40.9566 33.4346 48.2559 16.1824 55.9266C10.0487 58.6539 6.18538 61.8445 3.77971 64.5725C2.71643 60.6104 2.14807 56.4455 2.14807 52.1477C2.14807 37.2602 8.94729 23.9609 19.6094 15.1846Z" fill="#FF7186"/>
<path d="M68.6393 30.8753C69.9096 25.6951 70.9471 17.9329 68.2004 11.4743C62.8893 -1.01471 48.4348 -0.244792 44.6043 0.195052C44.2022 0.241146 44.0004 0.699935 44.2291 1.03372C46.5252 4.38568 37.5297 1.34876 32.6404 11.6046C29.5416 18.1044 30.3203 25.7572 31.4531 30.8755L68.6393 30.8753Z" fill="#945230"/>
<path d="M49.7902 13.7601C49.7902 13.7601 48.3504 10.4488 51.9967 7.71441C55.6381 4.98355 50.2098 0.0771069 50.1957 0.0644116C47.7533 -0.0902759 45.7242 0.0659741 44.6043 0.194685C44.2022 0.240974 44.0004 0.699568 44.2291 1.03336C46.5252 4.38531 37.5297 1.3484 32.6404 11.6043C29.5416 18.1043 30.3203 25.757 31.4531 30.8752H39.9533L42.6533 29.8025L49.7902 13.7601Z" fill="#753616"/>
<path d="M69.3859 30.2189C68.5845 29.4845 66.7929 29.8568 66.1027 30.3064C66.2539 31.248 66.2625 32.2113 66.132 33.1624L65.3176 39.0945C65.3176 39.5726 65.3025 40.0417 65.2748 40.5027C67.2609 41.1017 68.4428 39.3187 68.609 38.095C68.6804 37.5683 68.7974 37.0492 68.9597 36.5425C69.4879 34.8929 71.3937 32.0589 69.3859 30.2189Z" fill="#FFAA7B"/>
<path d="M30.6141 30.2189C31.4154 29.4845 33.207 29.8568 33.8973 30.3064C33.7461 31.248 33.7375 32.2113 33.8682 33.1624L34.6826 39.0945C34.6826 39.5726 34.6977 40.0417 34.7254 40.5027C32.7393 41.1017 31.5574 39.3187 31.3912 38.095C31.3197 37.5683 31.2027 37.0492 31.0404 36.5425C30.5121 34.8929 28.6063 32.0589 30.6141 30.2189Z" fill="#FC9460"/>
<path d="M65.1023 27.0542C64.1998 25.6384 64.4988 24.4819 64.5135 23.1278C64.5135 23.1278 65.2748 16.8941 57.5973 14.6806C55.3746 14.0398 52.2381 13.6566 49.0242 13.7798C46.7877 15.3566 45.3148 17.6702 45.3148 20.9487C45.3148 22.4556 45.6397 23.6331 44.7148 25.1609C43.7178 26.8083 43.1375 29.1847 43.467 31.712L44.2969 38.0771C44.2969 47.2278 48.9352 53.4476 52.8807 56.6741C53.442 57.1331 54.041 57.5302 54.6658 57.8716C55.5238 57.4939 56.3375 57.0114 57.0859 56.4302C60.9592 53.4224 65.5125 47.6245 65.5125 39.0946L66.327 33.1626C66.6482 30.8253 66.0912 28.6058 65.1023 27.0542Z" fill="#FFC7AB"/>
<path d="M52.9209 56.302C49.0476 53.1344 44.4941 47.0285 44.4941 38.0451L43.6795 31.7965C43.356 29.3156 43.9256 26.9826 44.9045 25.3652C45.8121 23.8654 45.4933 22.7096 45.4933 21.2301C45.4933 17.7002 47.2293 15.3064 49.79 13.7607C42.9666 13.8551 35.4863 16.168 35.4863 23.1283C35.4863 24.533 35.8053 25.6307 34.8975 27.0549C33.9185 28.5906 33.349 30.8059 33.6725 33.1617L34.4871 39.0951C34.4871 47.6252 39.0404 53.423 42.9139 56.4307C44.9355 58.0006 47.4305 58.8533 50 58.8533C51.7678 58.8533 53.5 58.4498 55.0672 57.6867C54.3098 57.3105 53.5891 56.8484 52.9209 56.302Z" fill="#FFAA7B"/>
<path d="M60.9658 45.9658C60.5129 43.2651 58.5643 40.5608 55.9627 39.9707L51.9864 38.8026C51.2951 38.5996 50.6032 38.9541 50.3248 39.5561C50.2741 39.666 50.1203 39.666 50.0694 39.5561C49.7909 38.9541 49.0989 38.5996 48.4076 38.8026L44.4313 39.9707C44.3326 39.9932 44.2354 40.0193 44.1387 40.0477H44.1758C43.7545 41.0387 43.0264 43.4998 45.0991 45.3801C45.7684 45.0385 46.4844 44.777 47.236 44.611L47.9461 44.4541C48.9813 44.2256 49.7819 43.2151 50.0754 42.1383C50.109 42.0147 50.2848 42.0147 50.3186 42.1383C50.6121 43.2151 51.4125 44.2256 52.4479 44.4541L53.1582 44.611C55.1996 45.0615 56.9883 46.2039 58.2535 47.8006C57.9916 48.965 57.1703 50.7346 54.625 51.634C52.9172 52.2373 51.0535 51.1633 50.8348 49.3856C50.8321 49.3625 50.8293 49.3395 50.8268 49.316C50.7908 48.9846 50.5133 48.7297 50.1754 48.7297C49.8377 48.7297 49.56 48.9846 49.5241 49.316C49.5215 49.3395 49.5188 49.3625 49.516 49.3856C49.3985 50.3412 48.8035 51.09 48.0151 51.4879C47.7959 52.3567 47.5051 54.2297 48.4119 56.0484C49.0678 57.3639 50.2192 58.3818 51.8408 59.0875C52.6623 58.9217 53.4672 58.6482 54.2307 58.2596C58.2102 56.2336 63.501 52.7137 65.1934 43.6582C65.3325 42.9137 65.4032 42.1567 65.4032 41.399C64.7588 42.9889 63.4198 44.9014 60.9658 45.9658Z" fill="#945230"/>
<path d="M45.741 58.2566C47.7957 59.3037 50.1443 59.5404 52.3342 58.9734C46.983 56.8992 48.089 52.2271 48.3803 51.2689C47.6467 51.7879 46.6635 51.9646 45.7258 51.6334C43.376 50.8031 42.3652 49.2307 41.9306 48.0777C42.8224 46.8578 44.0103 45.8807 45.383 45.2402C43.1265 43.2891 44.1974 40.6449 44.5455 39.9365L44.4312 39.9701C41.7783 40.5717 39.8031 43.3719 39.4017 46.125C36.6875 45.1016 35.2746 43.0711 34.597 41.3984V41.3992C34.597 42.1557 34.6676 42.9117 34.8064 43.6553C36.4957 52.709 41.7611 56.2285 45.741 58.2566Z" fill="#753616"/>
</svg>
